<?xml version="1.0" encoding="UTF-8"?>
<svg id="Capa_2" data-name="Capa 2" xmlns="http://www.w3.org/2000/svg" viewBox="0 0 623.12 586.94">
  <defs>
    <style>
      .cls-1 {
        fill: #f3b39e;
      }

      .cls-2 {
        fill: #75aece;
      }

      .cls-3 {
        fill: #e98287;
      }

      .cls-4 {
        fill: #a19ab4;
      }

      .cls-5 {
        fill: #4da3cc;
      }

      .cls-6 {
        fill: #d0879d;
      }

      .cls-7 {
        fill: #be7f8f;
      }

      .cls-8 {
        fill: #3ba1cd;
      }

      .cls-9 {
        fill: #af8094;
      }

      .cls-10 {
        fill: #a0a1bc;
      }

      .cls-11 {
        fill: #f1938d;
      }

      .cls-12 {
        fill: #59aed7;
      }

      .cls-13 {
        fill: #64a0c3;
      }

      .cls-14 {
        fill: #fcfcfb;
      }

      .cls-15 {
        fill: #92a2c0;
      }

      .cls-16 {
        fill: #e98693;
      }

      .cls-17 {
        fill: #7e93b1;
      }

      .cls-18 {
        fill: #d8f4f9;
      }

      .cls-19 {
        fill: #97839d;
      }

      .cls-20 {
        fill: #ef8a90;
      }

      .cls-21 {
        fill: #de8899;
      }

      .cls-22 {
        fill: #ef9697;
      }

      .cls-23 {
        fill: #bb92aa;
      }

      .cls-24 {
        fill: #f3a68f;
      }

      .cls-25 {
        fill: #e2999c;
      }

      .cls-26 {
        fill: #f2a499;
      }

      .cls-27 {
        fill: #ab98b1;
      }

      .cls-28 {
        fill: #c78ea3;
      }

      .cls-29 {
        fill: #8e7d90;
      }
    </style>
  </defs>
  <g id="Capa_1-2" data-name="Capa 1">
    <path class="cls-14" d="M105.11,183.59c.72-.49,1.73-.21,1.5.75,2.36.62,4.51,1.72,6.46,3.28l34.8,16.38c15.91,9.84,33.42,17.49,51.02,24.26l2.87,2.54c1.17-.8,4.17.13,4.49,1.5,1.34.77,2.59,1.52,3.75,2.25.66-1.56,3.39-.84,3.75.75.78-.5,1.39-.14,1.5.75,1.16-1.47,8.24.48,8.99,2.25.61.29,1.26.73,1.5,1.5-.01-2.26,3.29-1.95,3.75,0,.63.26,1.26.73,1.5,1.5.48-.32.97-.61,1.5-.81,2.4-.89,25.73,4.4,30.31,5.6l2.65,1.95c.58-.61,1.43,0,1.5.75.49-1.98,1.32-1.79,2.25,0,1.67-.31,2.67-.06,3,.75.57-2.21,2.02-1.96,3,0,.55-.42,1.1-.75,1.63-.72,5.45.28,12.33,1.03,17.09,2.97.92-.53,2.09-.61,3,0,1.03-2.1,4.26-2.2,5.24,0,2.77-.84,7.94-.78,10.49.75.25-1.95.84-2.18,2.25-.75.42-1.43,1.08-1.43,1.5,0,.42-1.43,1.08-1.43,1.5,0,1.2-1.52,4.45-1.63,4.49.75,1.91-.47,3.91-.97,5.99-1.5.53-1.19,1.78-1.24,2.25,0,3.49-.3,6.98-.55,10.49-.75.81-1.58,2.93-1.61,3.75,0,1.64-1.49,5.78-1.61,8.24-1.5.18-1.51.92-1.44,1.5,0,.14-1.03,1.38-1.17,2.25-.75,2.62-.57,5.37-1.07,8.24-1.5.23-1.43.82-1.35,1.5,0,1.1-.59,2.1-1.09,3-1.5.45-1.4,1.09-1.42,1.5,0,.31-.37.81-.37,1.5,0,.63-1.61,1.65-1.62,2.25,0,.29-.64.79-1.14,1.5-1.5.42-1.71,4.21-3.26,5.24-.75l1.5-.75c-.38-2.26,2.91-2.8,3.75-.75,1.62-.12,2.86-.62,3.75-1.5.47-1.25,1.1-1.28,1.5,0,1.62-.11,2.87-.61,3.75-1.5,3.25-1.81,9.04-4.56,12.74-3.75,4.3-1.18,8.29-2.68,11.99-4.5.08-2.23,1.77-2.03,2.25,0,.88-.77,1.87-1.51,3-2.25.61-2.08,1.59-2,2.25,0l1.5-1.5,2.05-2.02c14.22-4.69,27.79-11.08,40.71-19.16,7.05-2.84,13.77-6.02,20.18-9.55-.28-2.25,2.88-2.76,3.75-.75.68-.33,1.18-.83,1.5-1.5-.94-2.1,2.63-3.32,3.75-1.5.53-.36,1.03-.86,1.5-1.5-.29-2.11.96-2.41,2.25-.75,2.07-2.68,5.77-4.22,8.99-4.5,20.17-8.36,49.61-13.5,61.48,9.53,12.26,23.78-.28,72.51-7.49,97.42-9.01,31.15-20.91,56.09-37.52,83.45-8.05,13.25-18.43,25.94-28.5,37.64-8.88,7.8-17.11,15.96-24.68,24.5.22.71-.04.96-.75.75-1.14.59-2.14,1.34-3,2.25.36.48.72,1.12.45,1.49-2.89,3.98-22.28,17.17-27.54,20.24-20.71,12.07-41.39,22.16-64.59,28.69-4.72,1.33-20.04,5.64-23.59,4.36-.56-.2-1.09-.5-1.6-.83-.25.72-1,.97-2.25.75-.41,1.41-1.07,1.42-1.5,0-.33.81-1.33,1.06-3,.75-.17,1.5-.92,1.43-1.5,0-.92.89-10.23,3.53-11.23,2.95-.56-.33-.91-.85-1.13-1.45-.72,2.49-10.07,2.3-11.24,0-.62,2.19-7.62,3.75-8.62,1.5-3.69,1.26-9.43,2.2-12.74-.75-1.23-.36-2.53-.5-3.75,0-1.35.53-2.77.94-4.23.88-7.16-.25-17.26-1.65-24.52-2.75-.7-.11-1.34-.57-1.96-1.13-.14.66-.39.64-.75,0-.98-.18-1.53-.48-.73-.81-14.23-1.43-30.21-4.65-42.72-11.93l-1.29,1.14c-7.6-2.39-15.06-5.14-22.38-8.26l-.31-1.87c-1.53.26-1.61.18-1.5-1.5-1.3,1.49-2.81,1.67-3-.75-.98.87-2.95.08-4.25-.46-9.85-4.15-21.72-12.65-29.46-19.77-1.58-1.47-1.58-.97,0,1.5,9.74,6.69,19.15,13.93,28.24,21.72l2.47,3.76c3.73,1.5,7.3,3.69,10.73,6.58,3.31.81,5.23,2.36,5.75,4.66l3.17.73c15.64,12.45,34.48,19.86,53.03,26.82l2.23,2.43,3.52-.3c11.01,3.93,22.11,7.81,33.46,10.54,7.58,1.82,14.92,3.21,22.88,3.65l3.07,1.85c.71-.31,1.43-.6,2.18-.78s1.43-.33,2.13-.3c33.88,1.44,67.32,2.38,99.08-10.16l.87-1.59c21.87-5.37,41.81-17.48,60.56-29.13.17-1.52.92-1.46,1.5,0l2.25-1.5c9.64-6.32,19.53-13.55,27.76-22.21l1.46-.27c-.58,2.04,3.28,2.01,2.18,3.7-.08.12-1.96-.28-1.43,1.16.47,1.27,2.97,2.81,4.1,1.12.81-1.21-.15-3.6,2.27-3.8,2.04-.16,5.65,4.22,8.6,3.81-.04,1.04-.27,2.08-1.04,2.81-14.61,13.93-31.44,26.67-48.96,36.79-4.14,2.39-19.04,10.88-22.57,10.34-.55-.08-1.08-.27-1.61-.48-.09.64-.59,1.14-1.5,1.5l.31,1.67c-26.44,9.92-54.49,17.83-82.71,20.06-1.27,1.91-8.55,2.41-9.36,0-.07.58-.25,1.45-.68,1.5-3.29.41-16.13.52-19.2,0l-1.1-1.5c-2.19,2.32-7.17,2.25-9.36,0-.38.36-.88.36-1.5,0l-1.35,1.43c-1.09.26-9.51-1.24-10.64-2.18-1.57.29-2.57.05-3-.75-.02,1.51-1.16,1.49-1.5,0-.77.29-1.54.54-2.33.69s-1.51.25-2.24.19c-23.34-2.23-55.88-12.27-77.63-21.9-.73-.32-1.35-.72-1.71-1.46-1.04,1.11-1.66.77-1.5-.75-.77.61-1.36.16-1.5-.75-1.43,1.44-1.78,1.26-1.5-.75-3.15-.63-6.5-2.33-8.99-4.5-1.08,1.07-1.71.76-1.5-.75-5.84-2.06-11.34-5.06-16.48-8.99-1.53,1.47-2.89.52-2.25-1.5l-1.5-.75c-1.37-.18-2.8-.41-3.98-1.16-12.67-8.11-27.96-18.09-39.55-27.43-.51-.41-.88-1-1.25-1.61s-.66-1.31-.92-2.01l-3-3c-1.87,1.38-3.53-.97-3-3-1.1-.16-1.94-.35-2.25-1.5l-11.99-11.99c-3.98-3.21-7.41-7.14-10.49-11.24-2.07.71-3.3-.21-2.25-2.25l-13.67-14.47c-25.78-34.88-46.65-72.19-61.41-113.37-5.76-16.07-12.89-36.24-14.58-53.08-.09-.87.16-1.77.5-2.68-2.05-.27-1.84-.69,0-1.5-2.14-3.35-3.27-9.59-2.25-13.49-2-.31-1.9-.89,0-1.5-1.97-1.43-2.31-7.74-.75-9.74-.61-.21-.86-.96-.75-2.25-1.43-.42-1.44-1.08,0-1.5-.37-.16-.71-.35-.95-.62-.4-.45-.73-10.94.95-11.37-.24-1.2.01-1.95.75-2.25-2.03-.29-1.79-3.41,0-3.75-.88-7.16,3.33-15.48,7.91-21.27,13.15-16.6,41.53-12.89,58.01-3.46Z"/>
    <path class="cls-1" d="M48.92,137.88c.65.21.64.46,0,.75l-.53,1.77c-11.96,4.37-21.52,11.28-28.69,20.71-1.07.51-1.82,1.26-2.25,2.25,1.14,1.77.37,2.34-1.5,1.5-.33.73-.83,1.23-1.5,1.5.65.25.65.5,0,.75-.76,1.87-1.51,3.62-2.25,5.25,1.11,1.38.42,3.25-1.5,3-1.23,2.49-1.98,5.13-2.2,7.9l-.8.35c1.5.17,1.44.92,0,1.5-.16,1.71-.66,2.95-1.5,3.75l1.26,3.03c.05,17.94,3.11,35.59,9.15,52.94l-.67,3.23c2.2.45,2.47,1.57.75,3,1.27.43,1.51,1.81,1.5,3,.67.03,1.4.26,1.56.86,11.51,44.46,30.77,87.26,53.82,127.82l-.69,2.45c-.84,2.52-2.43,1.52-4.76-3.01-4.59,3.55-2.96,6.53,4.88,8.94,2.85,4.92-3.08,5.57-6.73,5.56l-2.17,5.3c1.16,2.07,1.47,3.44.61,5.7,8.6-4.56,8.28,6.22,1.74,9.67-.98,2.86-2.59,4.96-4.85,6.31,5.18,1.61,2.47,5.45-.08,8.45-1.19.45,1.87,5.1,2.23,5.44,3.68-3.4,6.17-3.48,7.47-.24,8.31-8.08,15.73,6.84,2.95,5.54-.02,2.04-.98,3.84-2.86,5.41-1.42,6.14,29.62,38.96,35.67,44.62l1.09,3.22c4.53,1.4,8.31,5.23,9.74,9.74,1.22.71,1.47,1.23,0,1.5C49.69,447.22,10.27,360,1.73,269.39c-3.79-40.2-6.13-123.16,47.19-131.51Z"/>
    <path class="cls-22" d="M132.82,461.61c1.55.57,3.16,1.16,4.4,2.28,20.17,18.15,38.02,34.18,61.06,49.08,21.09,13.63,40.28,22.18,63.16,31.85,1.54.65,2.8,1.82,3.98,2.97,1.98.87,1.72,2.14-.34,2.84-4.12-1.65-7.73-1.66-10.81-.01,1.27,5.17.56,9.21-4.99,10.76,3.75,2.15,5.32,5.26.08,6.49l-.14,1.32c10.45,2.42,8.12,11.15-1.39,5.83-2.92.88-4.66.07-6.38-2.33l-8.15-1.64c-4.28.46-5.86-.79-4.73-3.76-10.69,2.71-22.33-3.33-31.13-9.04.39-1.24-.8-1.53-3.57-.89-24.77-11.37-48.64-27.5-69.28-45.5l-2.25-.79c-.9-.76-1.99-1.37-3-2.25-.05-1.12-.55-2.12-1.5-3-3.25-3.17-6.53-6.52-9.74-9.74-4.37-7.13,4.76-6.23,8.76-3.01l3.41-6.2c-2.58-4.65-2.92-8.84-1.04-12.57-1.93-9.57,3.96-15.37,12.28-12.16l1.32-.53Z"/>
    <path class="cls-2" d="M590.56,376.93c.1,1.55.2,3.18-.36,4.66-5.56,14.48-14.53,28.91-23.67,41.38-7.83,13.01-16.47,25.34-28.4,34.89-.69.74-1.52,1.49-2.25,2.25-5.09,6.66-27.02,28.82-34.11,29.78-.34.05-.71-.21-1.1-.55-.66.93-1.41,1.68-2.25,2.25,1.12.73.47,1.05-.75,1.5-.5.02-1-.04-1.5,0-9,5.92-18.41,11.35-28.22,16.27-2.11-.37-3.45.29-4.02,1.99-13.36,8.65-13.75,1.22-13.91-10.84-2.89-7.91-.4-13.51,8.52-13.67-1.77-2.74-1.42-4.97-.46-7.98-2.15-1.33-2.68-2.59-1.6-3.75-1.48-1.37-1.26-1.75.75-1.5l2.1-3.18c14-9.31,26.67-20.37,38.59-32.18l3.51-1.36.59-1.99c9.81-10.02,19-20.61,27.56-31.75l3.31-2.22c4.14-3.91,12.18-2.13,16.15,1.46,9.58,1.84,12.18,4.75,7.78,8.74,5.01,5.13,7.31,7.23,11.48-.06l2.6-1.25c5.04-8.44,9.25-17.33,12.63-26.68.92-1.77,2.95-5.38,4.8-5.43.7-2.09,1.45-2.34,2.25-.75Z"/>
    <path class="cls-27" d="M313.37.75c.38-.36.88-.36,1.5,0,16.03,1.01,27.64,5.53,40.45,14.99,1.11,2.62-1.52,2.67-3.36,1.28-.4-.01-2.47,4.78-.64,5.33,2.1,26.23,3.4,52.47,3.89,78.7-1.77,4.87-1.56,9.87.63,14.98-1.01,6.25-.02,12.42.98,18.58,2.04,1.25,3.79,2.6,5.24,4.04-7.64,6.98-11.09,10.06-20.99,14.64-.99.46-2.8.23-2.99.35-.55,1.21-1.9,1.59-2.57.45.54,1.14-.6,1.99-3.42,2.55-.99.28-2,.5-3,.75-.81-.32-1.56-.07-2.25.75-.46.09-1.04-.09-1.5,0l-1.5.75c-.9.16-2.07-.14-3,0-.55-.05-.86-.13-.75-.75l-.91-1.64c4.17-7.95,5.75-14.94,3.16-23.52l1.54-6c-3.29-28.85-5.73-57.87-3.01-86.77-2.75-6.07-2.15-10.14-.75-16.38-4.12-3.86-3.47-7.14-1.58-12.1l-.72-2.06c-2.09.02-3.34-.18-4.2-2.17-3.07,1.04-4.83-.36-3.98-3.55l-3.13-.92c-2.32.17-6.5.25-3.66-2.25,3.31-.19,7.16-.12,10.49,0Z"/>
    <path class="cls-28" d="M297.64,1.49c.57.07,1.42.39,1.36.6-.34,1.15-.94-.94,1.12-.15.27.1.41.53.52,1.05.61-1.23,1.51-1.21,2.72.07,5.95-.94,7.59,1.77,4.78,6.96,2.03,2.41,1.58,4.08-.06,6.49.16,6.62-.51,12.94-2.03,18.95,1.74,2.94,2.66,5.45,1.96,8.9-1.57,5.91-1.5,11.6.21,17.06-2.11,5.77-1.61,9.46-.39,15.31-2.02,3.47-1.98,7.01.11,10.6-1.39,7.85-1.31,15.49.23,22.92-2.4,5.62-2.23,10.42.5,14.4l.12,16.26c2.26,3.54,2.56,6.68.91,9.41,1.35,3.71.96,7.18-3.07,8.55-1.21.42-2.71.67-4.49.75-8.29-1.11-14.47-2.65-21.73-5.99-.02-1.62,1.07-2.19,3.29-1.69l6.16,1c7.29.27,6.07-.78-3.64-3.14-.16-5.94-.85-11.86-2.07-17.77.88-4.41.37-8.9-1.53-13.48l1.42-15.62c-1.01-2.2-1.71-4.51-2.11-6.94l1.51-11.87c-3.42-4.92-3.77-5.46-.97-11.61l-3.24-11.55c.31-6.67-.19-13.09-1.48-19.29-5.26-3.62-5.06-7.68-1.09-12.35-3.16-2.25-2.71-4.74-.02-7.14-.9-5.22.3-8.49,3.62-9.81-4.17-.93-7.5.63-10.88,2.97l-9.07,6.36-1.62-.72c1.96,3.63-5.68,8.93-8.82,10.42l-1.66-.68c1.8-2.65,4.9-6.88,7.46-8.67,1.38-.96,2.78-.91,3.03-1.07,4.18-8.28,20.05-15.35,29.06-17.77,3.21-.86,6.61-1.29,9.9-1.72Z"/>
    <path class="cls-6" d="M258.68,20.98c4.35-2.86,11.73-8.99,16.48-10.18,1.04-.26,7.84-.09,8.24.44,1.28,1.73-3.51,2.67-4.05,3.05-2.39,1.68-.54,5.82-1.33,8.41-.36,1.16-2.13,1.79-2.13,3.15,0,1.57,2.42,2.27,2.19,3.61s-3.22,3.9-2.92,6.86c.23,2.21,3.74,3.49,4.34,5.42,1.6,5.15.82,13.27,1.15,18.48.15,2.44,3.01,9.18,3.31,12.2.22,2.23-3.05,5.68-1.9,7.61.55.92,2.74.54,2.89,4.29s-2.23,9.87-1.31,14.1c.24,1.13,1.66,1.92,1.82,3.2.5,4.03-1.35,12.08-1.36,16.4,0,3.45,2.25,5.98,2.37,8.24.09,1.7-.86,3.36-.84,5.21.06,5.12,3.17,11.93,1.52,17.65,2.19.01,7.44,1.24,9.26,2.25.77.42.7,1.3.47,1.87-.39.98-5.95,1.24-7.1,1.19-3.33-.14-6.46-1.7-9.38-.81-.52-.24-1-.51-1.5-.75-.4-.88-.9-1.13-1.5-.75-.5-.24-1.01-.52-1.5-.75l-1.5-.75c-5.81.57-19.97-12.36-23.95-16.88-17.03-19.33-23.88-44.03-19.29-69.46,1.73-9.59,9.1-28.03,17.02-33.55,4.37-3.05,7.64-4.09,10.49-9.74Z"/>
    <path class="cls-25" d="M79.63,134.13c.62-.6,1.62-.57,2.25,0,8.6.54,19.36,2.66,27.14,4.7,13.98,3.67,29.27,12.76,41.79,15.53l1.5,1.5c1.19,1.25,9.05,3.82,11.24,4.5.44.58.94,1.07,1.5,1.5.33.39,2.95.58,3.75.75l1.5,1.5c.21.18,1.65-.14,2.25,0,1.58.94,3.08,1.94,4.49,3,.64.14,1.54-.1,2.25,0,.5.48,1,.98,1.5,1.5.37.47,4.41,1.2,5.24,1.5l1.04,1.08c5.48,1.58,10.63,3.72,15.44,6.41.56.92,1.55,1.17,3,.75.08-.69.34-.65.75,0,3.35,2.17,7.09,3.92,11.24,5.25.95-1.28,2.2-.92,2.25.75,2.07-.07,4.78.63,5.99,2.25,2.67-.2,6.03-.09,7.49,2.25,2.66,1.05,2.19,7.07-1.17,7.03-4.97-1.12-8.17.16-9.63,3.83-3.34-1.89-17.39,7.28-18.22,8.94,1.67,1.44,3.25,3.28.54,4.18-8.48.78-17.91-1.33-25.47-5.25-2.98,1.8-10.4-.56-12.74-3-18.79-4.17-38.68-9.7-55.7-18.17-1.57-.96-1.57-1.53.26-2.06-1.36-2.52,2.15-3.36,4.42-3.4,3.3,1.07,5.5.81,6.61-.8,1.81.04,2.89-.91,3.25-2.86,2.66-.78,4.32-2.44,4.97-4.98,2.3-.34,4.37-.92,6.21-1.74-3.59-1.8-2.89-4.07,2.12-6.81-3.31-2.4-4.22-5.65-.34-8.08.96-4.61-22.51-11.41-26.32-12.36-19.82-4.98-40.09-9.22-60.48-3.91l-2.62-.78v-.75c3.1-.48,3.95-2.24,4.21-2.26.64-.05,1.72.83,1.79.77.15-.98.64-1.27,1.5-.75.96.08,2.03.04,3,0,.47-1.2,1.9-1.19,3-.75,5.83-.55,11.32-.96,17.23-.75Z"/>
    <path class="cls-17" d="M478.19,152.12c1.76,1.68.54,2.99-3.66,3.93-.85,4.18-2.05,4.28-5.94,4.55-6.61,2.55-12.64,5.91-18.11,10.09-4.78,1.84-8.42,3.72-11.1,8.4,5.02-2.8,11.95-.82,11.04,5.7,2.14,1.17,3.43,3.22,3.86,6.17,3.72,1.15,5.97,3.41,6.76,6.8,5.4.19,6.02,3.61.87,5.47-.33.32-.14,1.95.4,2.06,9.74-3.08,19.31-6.67,28.71-10.75l1.4,1.06c-1.13,3.64-6.58,3.98-9.27,5.34-16.54,8.34-35.59,21.57-53.66,25.38-.27.63-.77,1.13-1.5,1.5-.21.18-1.65-.14-2.25,0-.87.78-1.87,1.53-3,2.25-.69.12-1.64-.16-2.25,0-3.21,2.09-8.05,3.32-11.99,3.75-5.48,1.43-11.01,3.11-16.58,5.04-4.44.59-5.69-.19-8.9-2.79-6.11.03-7.01-4.02-4.46-9.1-3.22-6.7-8.06-18.59-.78-23.88,1.18-1.19,2.41-2.42,3.95-3.11,11.85-5.31,23.54-10.68,35.3-16.18,1.54-.72,3.28-.83,4.95-.94l.8-2.14,13.63-7.96c5.37-2.09,9.8-4.96,13.28-8.63,5.8-2.42,11.45-5.75,17.23-8.24,2.46-1.89,8.8-5.57,11.24-3.75Z"/>
    <path class="cls-13" d="M481.93,149.12c9.64-5.78,22.24-9.21,33.34-11.96,18.38-4.56,37.39-7.01,55.66-.61,6.24,2.18,14.96,5.43,18.14,11.07,1.15-2.34,6.48,1.32,4.49,3-1.11,1.91-4.87.81-4.49-1.5-.78-.68-1.15-1.28,0-1.5.05,1.08-.85.73-1.5,0-1.51,1.53-4.6-.14-3.75-2.25-11.19-4.1-20.97-7.62-33.11-8.26-11.51-.61-22.07,1.33-32.72,5.09,2.06,2.61,2.23,6.11.51,10.5l-.09,2.49c3.94,1.7,5.04,5.38,3.28,11.02l4.14,8.07c9.53-.65,19.08-.66,28.64-.03,7.03.82,25.61,12.46,24.49,20.07-.08.55-1.12.65-1.87.52l-1.36-.41c-12.5-23.28-41.11-16.72-61.57-10.09-3.39,1.1-6.38,2.85-8.99,5.25-.6.26-1.53.5-2.25.75-.26.77-.76,1.27-1.5,1.5-.14.15-2.83,1.02-3.75,1.5-.11.77-.74,1.34-1.5,1.5-.14.13-2.88.42-3.75.75-4.07,1.57-29.7,12.42-31.42,11.21-.3-.21-.99-3.29-.75-4,.52-1.57,4.18-.99,3.7-3.46-5.72,1.22-4.28-3.13-5.97-4.89-.9-.94-3.24-.83-4.55-2.19-1.47-1.53-1.03-3.62-1.87-4.87-.55-.82-2.12-.94-2.47-2.03-.39-1.2.26-2.88-.27-3.85-.11-.21-3.5-2.36-4.01-2.44-1.98-.29-6.2,3.34-7.06.39-.32-1.1,4.19-5.95,5.18-6.78,1.92-1.6,5.26-2.1,7.49-3.74,4.13-3.05,1.79-2.36,7.21-4.77,2.84-1.26,9.3-4.76,11.36-5.28.95-.24,2.52.28,3.12-.1.43-.27.43-2.57,1.07-3.44,1.69-2.3,4.69-.36,5.01-3.22-1.42-.42-1.43-1.07,0-1.5,1.19.95,3.29-1.35,3.75-1.5Z"/>
    <path class="cls-23" d="M302.88.75c-.42,2.26,1.15,1.45,2.59,1.5,2.88.1,5.78-.07,8.65,0-.03,3.45-4.18-.83-2.99,4.49,4.25-2.26,3.84,1.21,4.91,1.43.7.14,2.12-.95,2.53-.67.18.12,1.47,3.65,1.48,4.1.04,2.1-2.03,4.23-1.43,7.48.4,2.14,2.82,2.62,3,4.54.2,2.22-1.7,7.42-1.48,9.69.15,1.63,2.21,3.98,2.25,6.82.1,6.49-1.35,10.81-.77,17.95.51,6.4-.89,11.55-.82,17.24.17,13.07,2.69,26.85,3.52,39.85.22,3.46,1.04,9.35,1.07,11.84.02,2.03-1.52,3.85-1.54,6-.03,2.41,1.49,5.79,1.5,8.26.02,5.7-3.17,12.19-5.24,16.86.57.34.32.59-.75.75-1.34.16-2.66.65-3.75.75-3.18-.01-6.18-.26-8.99-.75,0-1.82,2.01-2.47,2.27-4.16s-.73-3.2-.69-4.5c.05-1.41,1.41-2.48,1.39-3.71s-1.87-2.56-2.19-4.53c-.77-4.74.41-13.35-.21-17.01-.24-1.44-2.62-3.64-2.64-5.3-.03-2.38,2.07-6.76,2.11-9.89s-1.52-5.08-1.59-7.51c-.12-4.04,1.62-10.62,1.36-14.78-.14-2.12-1.99-4.28-2.03-5.43-.04-1.36,1.95-4,1.98-6.13.03-2.32-1.63-4.67-1.32-8.15.21-2.46,1.53-3.57,1.64-5.93.14-2.95-1.42-4.23-1.55-6.05-.23-3.14,1.94-11.9,1.47-15.64-.19-1.49-1.99-2.99-2.07-4.69-.05-1.22,1.22-2.64,1.37-4.36.37-4.19.01-10.86.69-14.93.19-1.16,1.52-2.1,1.51-3.05-.01-1.07-1.45-1.89-1.49-2.99s1.2-2.1,1.26-3.61c.19-4.23-2.64-2.37-5.46-2.74-.99-.13-1.55-.73-1.81-.78-2.16-.82-.91-1.46.75-2.25.49-.04,1,.03,1.5,0Z"/>
    <path class="cls-10" d="M355.32,15.73c6.76,4.98,13.78,11.24,17.23,18.73-1.21,2.48,1.96,7.39,1.5,2.25l4.47,5.08c1.61,6.27,6.36,12.23,8.05,18.74,5.22,20.17,1.33,41.82-8.48,59.27-5.04,8.97-8.75,12.18-16.02,18.82-1.72.71-6.19-2.28-6.62-3.5-.37-1.07-1.64-11.24-1.62-12.61.1-7.04,1.65-3.5-.8-11.2-1.84-5.79.26-6.73.82-11.26.52-4.21-.61-9.24-.76-13.51-.64-18.17-.49-39.54-3-57.71-.26-1.87.38-4.23-.02-5.87-.14-.58-1.52-.51-1.53-.9,0-.36,2-6.51,2.28-6.73,1.41-1.11,3.17,2.65,4.5.38Z"/>
    <path class="cls-29" d="M547.11,474.35c1.05-.99,1.44-.57.75.75-27.77,34.2-52.25,55.63-91.4,76.44l-1.71-.35c-9.94,4.94-21.36,8.92-32.75,7.84-4.84,3.41-12.97,4.49-18.73,3-.8-2.09-1.6-4.29-2.4-6.59-9.06-1.78-8.91-4.89-.03-6.65l-7.96,1.18c-4.5.79-6.54.06-6.1-2.18,6.53-2.86,14.76-2.68,21.88-3.97,7.47-1.35,58.09-14.61,60.53-17.77.32-.6.82-1.1,1.5-1.5,24.99-8.83,55.02-31.34,74.17-49.46.55-.52,2.04-.55,2.25-.75Z"/>
    <path class="cls-25" d="M122.34,511.06c2.37-2.04,5.38,3.1,7.14,4.48,16.41,12.93,33.68,24.94,52.29,34.62,1.82.95,10.53,5.57,11.55,5.75,1.95.35,4.11-1.07,6.19-.63.24.19-1.32,1.83-.44,3.02.78,1.05,9.13,4.86,10.94,5.58,1.17.46,8.92,3.17,9.52,3.22,2.87.25,6.14-2.25,9.45-1.22,2.3.71.14,3.33.49,3.63.24.2,3-.19,4.08.05,2.73.61,5.65,1.1,8.19,1.65,1.34.29,1.89,2.34,3.25,2.67.96.24,2.11-.62,3.25-.31,2.11.58,2.96,2.75,6.71,1.19-.57-4.13-6.97-2.31-7.26-5.74s3.15-2.81,3.51-3.26c1.24-1.53-4.17-2.98-3.74-4.85.32-1.4,4.04-1.35,5.12-3.13,1.8-2.98-.39-7.76.2-8.42.17-.19,4.24-1.59,4.79-1.64,2.07-.19,3.82.67,5.75,1.07,1.41.29,2.42,1.42,2.12-1,6.99-.14,16.03,2.03,21.73,5.99.5-.18,1-.32,1.51-.37,3.76-.35,19.18,3.74,23.79,5.14l2.42,1.97v1.7c-5.28,3.23-8.34,5.08-13.57.1-.5,7.05-2.96,9.69-7.4,7.93-.08,2.9-.33,5.71-.76,8.44-6.75,1.85-12.71,1.97-19.47,2.06l-.37.92c-4.63-.81-9.25-1.37-13.86-1.67-55.39-11.08-94.53-32.86-137.1-68.94Z"/>
    <path class="cls-18" d="M481.93,149.12c-.14-1.9,1.22-1.89,2.24-2.63,6.13-4.44,7.3-3.63,13.82-5.66,16.2-5.03,29.4-8.39,46.46-8.98,22.29-.77,42.17,7.18,57.39,22.86.73.75,2.2.76,2.77,1.33.8.81.95,3.26,1.69,4.53,3.13,5.4,7.78,15.46,10.43,21.34,2.44,5.39,2.96,14.68,3.78,20.79,2.85,21,3.75,46.52.68,67.36-2.66,18.06-4.79,47.32-11.88,63.2-3,6.72-3.69,12.83-5.81,19.52-5.21,16.48-16.95,42.38-25.81,57.36-2.47,4.18-7.92,9.31-10.98,13.75-4.12,5.99-7.24,13.76-11.4,19.15-3.08,4-10.09,9.23-14.19,12.96-.93.85-1.53,1.88-3.01,1.86,21.45-22.86,40.31-51.86,52.44-80.93-1.38-1.79-.18-5.13,2.25-5.25,0-.95.24-1.7.75-2.25-1.14-1.24.68-4.59,2.25-5.25-.66-.14-.63-.39,0-.75-.28-1.2-.3-1.41.75-.75-.08-2.94.67-4.69,2.25-5.25-1.47-.93-1.08-2.46.75-2.25.52-3.18,1.45-7.31,3-9.74-1.75-1.35-.23-6.11,1.5-6.74.76-1.31,1.51-2.56,2.25-3.75l-.72-1.98c3.52-14.66,6.38-29.46,8.57-44.4l1.88-3.83c-1.59-1.35-1.25-2.02.75-2.25-1.21-3.31-.5-8.72.75-11.99-1.98-1.07-1.32-2.53.75-3l-.76-1.28c2.03-34.55,3.59-74.27-14.97-104.38-.66-.22-.65-.47,0-.75l-1.5-.75c-2.02.49-2.18,0-.75-1.5-.54-.94-1.04-1.94-1.5-3-1.99,1.02-5.57-3.18-5.24-5.25-.53-2.35-3.58-2.33-4.49-3-35.1-25.64-70.16-10.82-107.13,1.5Z"/>
    <path class="cls-23" d="M228.72,185.84c8.6.19,23.91,5.65,33.54,7.29,8.68,1.48,17.61,2.53,26.39,3.2,4.01,1.12,8.07,2.03,12.19,2.71,2.59.69,3.83,2.11,5.2,4.25s3.59,13.64,1.34,15.52c-2.75,2.32-5.89,2.6-8.99.75-.62.42-1.25.82-1.93,1.12-3.56,1.59-30.74,1.54-34.35-.03-.68-.29-1.31-.68-1.93-1.09-1.07-1.21-1.91-2.99-2.52-5.35-6.89-4.64.5-12.84,5.1-16.7-8.79-1.99-17.73-4.07-26.62-6.36-.54-.14-1.02-.51-1.53-.91s-.97-.9-1.41-1.41c-2.49-.68-5.05-1.42-7.49-2.25-1.09-1.11-.68-1.5.75-.75-.03-1.31,1.85-1.13,2.25,0Z"/>
    <path class="cls-15" d="M372.56,34.47c.09.19.89.93,1.5,2.25,9.71,20.96,14.81,36.68,10.12,60.71-.61,3.14-4.13,15.42-5.72,17.51-2.5,3.29-4.32-1.14-6.27-2.56-.99-.72-2.54-.62-2.63-.72-.8-.85,1.39-3.14,1.51-4.15.26-2.35-2.1-3.52-2.25-5.23-.23-2.64,1.56-8.22,1.55-11.21-.02-6.96-2.35-16.28-3.09-23.22-.43-4.1-.06-12.7-.04-17.17.01-1.88-1.99-3.97.5-5.65,1.66-1.13,4.29-.12,5.49-1.98.85-3.32-6.07-7.66-.68-8.56Z"/>
    <path class="cls-27" d="M348.58,194.08c1.48.95,3.06,1.7,4.76,2.25-.16,4.31-.21,7.83,3.37,11.13l-.64,1.61-2.42,2.24c-14.13,4.08-28.48,7.28-43.15,8.7l-3.13-1.2c-.46-3.49-1.39-12.67-2.95-15.41-2.03-3.56-7.17-3.41-10.65-4.33l-5.12-2.75c20.55,1.56,39.57.53,59.93-2.25Z"/>
    <path class="cls-10" d="M416.76,177.6c3.44-2.78,8.28,2.63,5.24,5.25-14.07,7.61-29.22,14.67-44.2,20.23-1.38,2.31-3.42,2.94-5.94,3.48-4.67,1.56-11.22,3.59-15.78,2.52-2.94-3.82-4.04-4.27-4.35-9.39-.05-.8.83-2.28.61-2.59-.45-.64-4.93.29-3.75-3,8.92-1.22,17.61-2.55,26.38-4.71,8.81-2.17,35.42-12.33,41.79-11.77Z"/>
    <path class="cls-28" d="M341.09,564.27c2.95-2.1,10.05-1.69,12.74.75,2.47.94,1.09,2.23-.64,3.44l.7,3.76c2.57,1.38,7.05,4.24,2.94,6.29-1.24,2.46-10.53,2.35-11.99,0,1.83-.21,2.65,2.34,1.8,3.64-1.85,2.82-29.27,4.29-33.26,3.86-18.79.67-35.73-2.35-53.94-5.99,2.91-2.22,6.55.2,9.43.69,1.59.27,3.33-.15,4.8.06,7.48-.22,15.01.26,22.59,1.42,5.29.49,10.61.42,15.85-.09,2.2-.22,7.28-.78,4.42-2.88-1.92-2.89-4.39-12.38-2.71-15.24.35-.59.92-.96,1.52-1.26,1.74.23,3.23.15,4.79-.68l2.05-1.21,17.18,1.82,1.75,1.64Z"/>
    <path class="cls-23" d="M384.54,565.02c1.24,1.59,0,3.66-3.7,6.21,1.52,6.32.39,8.69-6.54,7.95-1.69,1.05-3.77,1.83-6.24,2.32-.92,1.2-2.68.56-3.75.75-3.58-.4-9.32,0-11.24,1.5-4.07.57-9.67,2.25-13.86,2.25h-11.24c-.31,0-1.65.75-2.94.8-3.56.15-8.39.41-11.67-.8,7.65-.27,15.26-1.42,22.92-2.92,2.85-.56,6.19-.44,9.29-1.58l-.75-2.99h11.99c1.21-4.19-3.38-3.54-4.33-5.78-.24-.57-.97-4.56-.84-5,.31-1.09,2.72-.85,2.18-2.71l2.7-1.4c8.43.28,16.89.38,25.32.04l2.7,1.37Z"/>
    <path class="cls-27" d="M422,559.02c6.19.12,8.68,3.54,1.66,6.18-1.71.64-4.69,1.51-6.13,1.9-3.46,1.97-6.38,1.89-10.22,1.02-.57,2.27-1.56,3.2-3.78,3.69l-.25,1.44c-7.87,2.32-16.66,5.55-24.67,7.17-3.23.66-7.18.55-10.54,1.07.17-.22-.18-1.37,0-1.5.51-.38,3.93.44,4.46-.09.27-.27-.18-1.8.09-2.08.65-.67,5.88.77,7.13-.79,1.05-1.44-.92-4.13-.32-6.25.68-2.38,4.89-3.3,5.12-5.79l2.08-1.67,14.2-2.43,2.44,1.1c6.25-1,12.53-1.72,18.73-3Z"/>
    <path class="cls-19" d="M422,559.02c6.39-1.32,13.41-2.52,19.66-3.94,3.43-.78,8.91-3.96,12.35-4.89,1.38-.37,2.86-.8,2.45,1.34-12.92,6.87-24.64,12.97-38.21,16.49-1.21.89-2.71,1.64-4.49,2.25-3.72.9-6.83,1.92-10.49,3-4.18-2.36,1.19-2.7,1.9-3.73.63-.91.19-2.85.35-3.02.32-.35,7.15,1.21,9.39.77,1.86-.36,1.48-1.99,2.39-2.27,1.47-.44,11.56-.55,8.36-4.41-.27-.33-3.17-.13-3.66-1.58Z"/>
    <path class="cls-15" d="M449.72,164.11c.15,1.63.22,2.57-1.2,3.67-2.69,2.09-9.17,4.88-12.53,6.95-5.07,3.13-8.77,5.29-13.99,8.11-.66-3.45-1.63-4.93-5.24-5.25.48-1.38,1.67-1.55,2.8-2.06,9.68-4.4,20.32-7.32,30.16-11.42Z"/>
    <path class="cls-18" d="M529.13,469.1c-7.45,7.82-16.54,16.31-26.03,21.56-.87.48-3,.76-3.18.92-.45.4,1.26,1.39-2.25,1.5.23-.51.54-.99.75-1.5.35-1.15,1.33-1.29,1.5,0-1.47-.37-.37-1.58.75-2.25,10.45-5.32,26.71-20.45,35.21-29.23-.47,3.25-4.41,6.54-6.74,8.99Z"/>
    <path class="cls-1" d="M186.01,170.1c6.54,2.35,13.07,4.81,19.78,6.68.82.28.3,1.3.45,1.57-.25.03-.5-.02-.75,0-1.68.5-2.68.25-3-.75-4.79-1.69-9.7-3.6-14.45-5.44-1.17-.46-2.42-.21-2.03-2.05Z"/>
    <path class="cls-1" d="M212.23,179.84c4.86.92,9.4,2.84,14.1,4.3,1.26.39,2.84-.53,2.38,1.7-.7-.02-1.62-.11-2.25,0-2.14-.63-4.39-1.13-6.74-1.5-.58-.28-1.42-.26-2.25-.75-1.1-.96-2.59-1.49-4.47-1.57-2.04-.52-3-1.26-.77-2.17Z"/>
    <path class="cls-27" d="M547.11,474.35c.13-.12.26-1.48,1.07-2.27s5.57-6.05,6.42-5.22c-.77,2.72-3.17,5.26-4.93,7.46-.56.71-1.73.68-1.81.78l-.75-.75Z"/>
    <path class="cls-10" d="M306.63,158.86c2.8-.04,6.78-.59,8.99.75-5.7.51-7.53.8-13.48,0,.82-1.26,3.08-.73,4.49-.75Z"/>
    <path class="cls-18" d="M466.95,155.86c-.41-1.79.93-1.54,1.96-2.12,3-1.69,6.03-1.94,8.16-4.62,1.56-.57,1.02,1.42,1.11,1.49-.04.49.06,1.01,0,1.5-3.94.37-7.69,2.21-11.24,3.75Z"/>
    <path class="cls-28" d="M208.49,178.35c.51.48,1,.98,1.5,1.5.19.17,1.64-.11,2.25,0-.69,2.5,3.01,1.27,4.73,2.24.84.48.45,1.47.51,1.51-2.84-.42-7.62-1.62-9.98-3.15-1.57-1.02-.88-1.41-1.26-2.1.64-.07,1.62-.08,2.25,0Z"/>
    <path class="cls-27" d="M353.08,583.75c-.42-2.41,1.21-1.26,2.61-1.47,2.17-.32,4.33-.73,6.51-1.03,1.39-.19,2.42-1.47,2.12,1-3.99.72-7.43.96-11.24,1.5Z"/>
    <path class="cls-10" d="M332.1,156.61l3-1.5-2.25-1.5c1.48-5.38,2.2.8,5.25,0-.07.05.4.93-.45,1.56-1.15.85-4.12,1.03-5.54,1.43Z"/>
    <path class="cls-27" d="M301.38.75l-.75,2.25c-1.71-.33-3.48.98-3-1.5,1.1-.14,2.12-.62,3.75-.75Z"/>
    <path class="cls-1" d="M177.02,167.11c-1.62-.35-5-1.12-4.49-3,1.89.44,4.59.58,4.49,3Z"/>
    <path class="cls-27" d="M418.25,568.02c.59,2.23-2.73,1.82-4.49,2.25.72-1.75,2.87-1.83,4.49-2.25Z"/>
    <path class="cls-25" d="M119.34,508.82c-.62-.54-1.05-1.11-1.5-1.5v-1.5c.47.46,2.97.04,2.24,2.61l-.74.39Z"/>
    <path class="cls-1" d="M62.4,134.88c-.47.04-1.38.68-3,.75-.63-2,1.71-2.18,3-.75Z"/>
    <path class="cls-1" d="M81.88,134.13c-.21-.01-1.48.03-2.25,0,.1-1.13,2.14-1.13,2.25,0Z"/>
    <path class="cls-10" d="M329.1,157.36c-.55.14-1.11.52-2.25.75.33-1.17,1.83-2.38,2.25-.75Z"/>
    <path class="cls-1" d="M179.27,167.11c2.72.36.98.84,1.5,1.5-1.53.22-1.71.04-1.5-1.5Z"/>
    <path class="cls-1" d="M168.78,162.61c2.89.63.92.98,1.5,1.5-1.59.18-1.68.09-1.5-1.5Z"/>
    <path class="cls-10" d="M320.86,158.86c-1.18.18-1.41-.01-1.5,0,.17-.29.65-.52.75-.75l.75.75Z"/>
    <path class="cls-1" d="M163.54,160.36c2.78.86.86.75,1.5,1.5-1.51.23-1.72.01-1.5-1.5Z"/>
    <path class="cls-10" d="M325.36,158.11c-.08.02-.27.53-1.5.75-.28-1.69.34-2.13,1.5-.75Z"/>
    <path class="cls-1" d="M150.8,154.37c2.83.63.93.9,1.5,1.5-1.43.24-1.75-.06-1.5-1.5Z"/>
    <path class="cls-28" d="M277.41,152.12l.38-.74c1.39-.26,1.19.22,1.12,1.49-.51-.24-1-.5-1.5-.75Z"/>
    <path class="cls-28" d="M274.42,150.62c.4-.04,1.79-2.21,1.5.75-.45-.21-1.16-.11-1.5-.75Z"/>
    <path class="cls-23" d="M314.87.75c-.13,0-.96.02-1.5,0l.38-.75,1.12.75Z"/>
    <path class="cls-1" d="M56.41,135.63l-1.5.75c.14-.14-.09-1.06,0-1.49.79-.3,1.41.74,1.49.75Z"/>
    <path class="cls-1" d="M208.49,178.35c2.82.38.99,1.05,1.5,1.5-1.59.18-1.68.09-1.5-1.5Z"/>
    <path class="cls-16" d="M199.5,283.26c2.29-.37,3.79-.12,4.49.75.62-2.25,4.69-2.34,5.24,0,3.78-.75,9.12.45,11.24,3,4.86,1.87,9.81,6.14,14.13,10.33,2.52,3.21,3.79,5.17-.91,7.27l4.59,4.5c9.08,3.62,1.09,10.82-3.45,13.99,1.14,5.64,2.09,11.22,2.87,17.15,2.38,3.28,1.56,5.51-1.26,8.15.7,2.08.48,3.71-1.28,5.18,5.19,1.29,4.86,5.45-.99,12.49,10.27-1.46,12.85,3.67,7.75,15.4.7,5.26.23,10.19-1.41,14.79,1.64.53,2.22,1.11,3.16,2.45.66.94,5.76,13.13,5.83,13.88.27,2.99-4.65,13.25-7.29,15.17,6.99-2.72,8.13.77,3.02,5.72,1.47,1.79,3.99,8.44.4,8.57-.61.02-1-.74-1.17-1.41-.21.65-.46.64-.75,0-2.94-2.29-6.33-3.9-10.17-4.85l-.31-1.15-.83.72c-2.7-2.26-5.42-4.5-8.16-6.71-.26-.25-.5-.5-.75-.75-.46-1.5-.72-1.81-2.25-2.25-.72-.75-1.5-1.52-2.25-2.25-.92-1.23-1.76-2.09-3-3-.06-.19.01-.49,0-.75-1.43-.23-1.35-.82,0-1.5,2.95-2.57,7.59-.72,6.92,3.95,4.76,1.64,4.53.35-.68-3.86l-.3-2.08c1.59-5.34-.15-5.77-5.23-5.49.66,4.01-1.82,5.89-5.21,3.73-.81-1.1-1.81-1.59-3-1.5-.25-.01-.5,0-.75,0-.51-.44-1.01-.94-1.5-1.5-.31-.39-1.32-.68-1.5-1.5.19-.63.44-.61.75,0l.75-.75c-2.37-1.87.63-6.77,2.97-8.33-3.2-.92-5.68-2.39-7.46-4.41-1.32-1.56-.2-3.73,3.35-6.5,1.24-1.65.1-2.94-3.41-3.85.1-3.07-.39-6.05-1.46-8.96l.53-1.01c3.17-.54,3.77-2.11,1.8-4.7,1.42-1.25,2.61-10.29,1.78-11.64-2.99-1.61-3.09-4.43-.31-8.46-3.75-5.09-3.77-8.87-.08-11.35,1.31-5.13,1.76-10.24,1.35-15.33,2.56-.22,2.86-1.71.92-4.48l1.37-8.75c-1.56-4.08-1.54-7.56.06-10.45-5.63-1.87-7.17-7.46-7.44-12.5-4.48.79-11.57-.04-6.7-5.16.86-2.2,5.1-2.14,5.99,0Z"/>
    <path class="cls-23" d="M264.68,382.17c9.68-.89,18.45-7.27,28.11-8.23,8.86-.88,14.19,3.13,9.49-8.77-5-12.65-14.83-17.83-8.54-34.5,4.16-11.04,21-13.31,24.38-1.58,2.32,8.04-3.25,15.8-2.37,18.81.42,1.42,5.9,6.04,7.23,7.76,4.62,5.92,9.81,15.53,9.93,23.14.03,2.22-.8,4.14-.81,6.37.56.05,1.39.15,1.54.59,1.79,5.4,3.78,13.57,3.15,19.07,2.45,3.43,2.39,7.34-.18,11.72.91,13.29.14,26.73-2.33,40.32,1.38,1.95,1.65,3.53.82,4.74,1.8.7,1.13,2.12-.75,2.25-17.75,1.44-31.28.67-48.7-3-2.03-.61-2.06-1.65,0-2.25,1.54-1.86,3.64-1.5,4.49.75l.93-1.4c6.4,1.06,8.5,1.14,13.11-3.7-2.48-4.68-2.4-7.82.25-9.42-2.24-3.02-3.28-6.2-3.12-9.54,1.38-6.43,1.19-12.49-.58-18.18,2.56-7.54,3.47-15.66,2.3-23.66l.49-2.43c-4.16-1.67-5.05-7.76-5.33-11.84l-2.67-.09c-3.75-1.91-7.78-1.88-12.11.09l-.98,1.53c-1.13.54-14.69,4.43-15.47,4.24-.68-.16-1.15-.74-1.53-1.28-.25.65-.5.65-.75,0-1.93-.57-1.91-.92,0-1.5Z"/>
    <path class="cls-3" d="M90.87,387.42c1.41-.42,2.86,2.15,1.5,3l1.5,2.25c1.11-.28,2.03.39,2.78,2,9.93,16.76,21.49,31.84,34.68,45.21.88.8,1.56,1.62,2.25,2.25,3.07,4.11,6.51,7.99,10.49,11.24l11.99,11.99c.4.95,1.15,1.45,2.25,1.5,1.52,1.13,1.97,2.07,3,3l3,3c14.17,11.51,31.52,21.09,45.7,32.22l1.5.75c.91.51,1.51,1.04,2.25,1.5,5.12,3.92,10.62,6.92,16.48,8.99.49.25,1,.5,1.5.75,2.31,2.01,6.05,4.09,8.99,4.5.51.24,1.01.52,1.5.75.4.88.9,1.13,1.5.75.55.24,1.05.55,1.5.75,17.47,8.34,36.01,14.65,55.61,18.93,8.66,8.29-7.7,10.71-13.66,11.05-7.19-1.92-14.55-3.57-21.73-5.99-48.67-16.43-96.71-49.82-132.6-86.18l-2.75-1.39c-18.83-18.34-35.02-39.9-49.52-61.87-.89-1.34-1.2-2.78.58-3.43-.25-1.51.71-2.78,2.86-3.83-6.3-6.41,1.81-9.89,6.88-3.67Z"/>
    <path class="cls-4" d="M374.05,328.22c.8.37,1.51.55,2.25,0,.99.08,2.01-.06,3,0,1.08.3,1.77.71.75,1.5.65.21.64.46,0,.75l-.29,1.65c-6.98-.04-9.07,1.24-6.25,3.85.26,9.9,1.64,19.71,4.13,29.45,1.02,6.28,1.05,12.53-2.06,18.21.76,4.42.01,8.09-2.23,11.02,3.4,9.1,3.64,17.92,2.91,27.64,1.82,2.98,1.34,6.11-1.45,9.37,1.93,7.33.67,13.55-3.76,18.64,3.09-1.06,5.34-1.05,6.76.05-3.11,3.61-9.5,5.71-14.05,7.3s-9.54,2.84-14.42,3.94c-3.93.23-9.7.76-11.99,2.25-.98.1-2.01-.08-3,0l.75-2.25c.68-1.14,2.02-1.69,4.01-1.65l12.48-3.01c-3.24-4.75-5.18-12.96-1.62-17.99-.4-4.49.09-8.48,1.48-11.98-2.24-3.63-2.52-6.27-.02-9.85.95-7.46.75-15.01-.6-22.67.47-2.75,2.31-17.5.94-18.04-.88-.35-4.97-.36-4.96.08.88,1.89,1.59,14.72-1.39,11.92-.27-.25-.44-.62-.57-1.01-.94-15.16-9.85-45.94,3.73-56.59,7.79-6.11,16.63-3.13,25.49-2.61Z"/>
    <path class="cls-19" d="M377.8,203.07c-.71,2.26-2.33,4.57-2.2,7.07.06,1.12.65,7.19.83,8.11.39,2.06,3.33,6.39,3.63,8.51.34,2.37-1.7,3.41-1.57,5.15.19,2.37,3.69,1.99,4.55,4.15,2.57,1.93-1.59,3.14-3.72,3.37.29,3.4-5.19,4.64-7.91,4.21-4.18,1.34-8.05,2.06-12.57,2.41l-2.77,1.25c-.33.96-1.29,1.07-1.5,0-3.76-.06-7.22.56-10.38,1.85-9.27-.18-18.04.71-26.32,2.65-.5,0-1,0-1.5,0-.61-.98-1.11-.98-1.5,0-.12,0-.95.76-2.25.75-2.8-1.53-7.38-1.55-10.49-.75-1.74-.06-3.51.11-5.24,0-.95-.55-2.04-.54-3,0-6.3-.47-12.64-1.6-18.73-2.25-2.41-.3-1.48-2.45.48-3.05,9.99,1.4,19.84,1.38,29.59-.58-.94-4.26-2.14-8.49-3.6-12.7.6-3.46.14-6.73-1.39-9.81-2.91.13-5.1-2.86-1.86-3.84,3.03-.2,5.98-.47,8.99-.75,18.68-1.73,30.99-4.68,48.7-9.74,7.13-2.04,14.62-3.36,21.73-5.99Z"/>
    <path class="cls-24" d="M19.7,161.11c2.65-5.95,19.85-20,26.26-16.01,1.86,1.16,2.31,3.02,1.98,5.14,5.49.14,7.8,10.35,1.03,9.03,1.92,4.69,4.29,11.81-3.28,10.71-.63,1.28-.63,2.85-.5,4.24,4.57,2.54,4.93,6.7.94,10.13l-4.7,9.73c.65.2.63.45,0,.75-1.74,2.25-2.99,4.74-3.75,7.49,2.01.55,1.28,4.29.75,5.99-.92,2.22-1.3,4.3-1.14,6.23-.2,3.48-.47,8.9,1.14,11.75-.04.49.05,1.01,0,1.5.47.84.32,2.26-.75,2.25l.73.5c-.62,3.53-.11,6.61,1.52,9.24.06.49-.06,1.01,0,1.5-1.48,2.74.2,9.97,2.25,13.49.08.47-.09,1.03,0,1.5-.32.87-.82,1.62-1.5,2.25-2.08,2.88-4.15-.79-4.48-3.33l-.85-14.56c-.29-1.47-1.17-2.79-2.66-3.98-1.96-8.48-1.91-17.2-1.36-25.81-2.21,8.37-3.97,16.86-5.29,25.47-.99,2.54-2.97,4.89-5.42,2.58l-2.37,1.76c2.56,3.06,2.33,11.56-2.28,7.37-5.35-19.86-11.79-38.52-9.74-59.2.72-.96,1.22-2.21,1.5-3.75.02-.5-.04-1.01,0-1.5.76-.7,1.29-2.29,1.59-4.78l1.41-3.47c.52-.85,0-1.8,1.5-3,.58-.66,1.01-1.84,1.3-3.54l.95-1.7c.04-.24-.05-.51,0-.75l1.5-1.5c.36-.28.8-.95,1.5-1.5.39-1.01,1.14-1.76,2.25-2.25Z"/>
    <path class="cls-10" d="M390.53,505.07l4.5,1.9c2.56,2.95,5.49,5.11,8.66,7.03l-.16,14.92c7.84-.11,15.66-1.82,23.48-5.14,3.29-1.49,5.87-1.49,7.73.03-1.63,1.44-4.3,2.29-6.36,3.01-30.64,10.67-65.19,11.56-97.03,8.23-.95-.58-1.28-1.6-.97-3.04-8.04.43-16.18.41-24.01-1.72-5.13-1.4-6.01-4.87.3-5.92-.59-5.22,2.93-5.6,5.34-1.72.43-2.56,1.66-4.24,3.68-5.05-1.03-2.17-.8-3.6.67-4.29l1.4-1.05c8.48-.16,16.93-.46,25.35-.9l1.71,1.21c1.3-.8,2.67-1.64,4.2-1.87,12.54-1.84,24.45-3.74,36.92-6,1.52-.28,3.08.04,4.57.37Z"/>
    <path class="cls-17" d="M487.18,430.13c1.74.39,1.42,1.48.47,2.78-10.75,12.07-24.19,21.15-37.44,30.06l-1.36,2.42c2.24.83,3.96,2.04,4.42,4.52,2.86-.49,6.93,1.09,3.95,3.68-.28.18-.47,1.32-.75,1.5-.16.55-.35,1.09-.63,1.58-2.07,3.67-26.63,15.18-32.3,17.74-5.33,2.41-27.45,12.19-31.43,11.26-.54-.13-1.06-.35-1.57-.6-14.64,3.94-30.58,6.28-45.7,7.49-1.25-3.55-2.23-7.24-2.94-11.08,1.53-1.2,2.55-2.69,3.04-4.48,1.76.04,2.98-.27,3.65-.93.5.01,1.01-.04,1.5,0,1.45.16,2.45-.09,3-.75.49.02,1.03-.07,1.5,0l2.25-.75c30.43-3.18,68.82-20.18,94.04-36.7,5.68-3.72,19.12-12.43,22.83-17.25.86-1.11,1.86-1.86,3-2.25.28-.22.49-.54.75-.75l4.66-5.4c2.03-2.83,3.72-3.53,5.08-2.1Z"/>
    <path class="cls-15" d="M456.46,475.09c.19,1.51,2.85,1.99,3.04,2.77.42,1.76-1.06,3.95-.8,5.79.18,1.28,1.87,2.38,1.51,3.78-.55,2.11-8.92-.53-9.78,5.99-.52,3.96,1.9,6.1.89,9.68,1.62,3.18-.94,11.81,4.41,10.65.31-.07,5.59-2.17,5.93-2.36,1.59-.89,2.07-2.95,2.45-3.17.91-.51,3.42.02,5.14-.49,8.14-2.42,17.73-11.99,25.52-15.06,1.12-.44,1.34.42,1.41.41-2.87,3.33-7.25,5.8-11.01,8.1-10.67,6.53-38.93,21.89-50.42,22.62-6.88.44-14.31,4.19-21.7,5.67-2.67.54-2.26.65-3.51,1.02s-6.06-.36-7.76.05l.66-16.4c-5.22-.4-5.93-5.58-10.02-6.87-1.55-.49-2.23,1.12-1.87-2.22,20.62-5.55,47.63-18.28,65.93-29.97Z"/>
    <path class="cls-9" d="M260.18,219.56c13.26.65,24.93.87,38.21,0-.92,3.66,2.41,1.47,3.41,2.95-.29,1.92,1.45,3.97,1.68,5.13.33,1.69-.67,2.85-.53,4.19.7,6.25,4.48,9.89,3.68,16.2-5.65-.91-11.38,1.11-16.74,1.21-3.74.07-8.3-1.04-12.11-1.25-1.39-.08-3.07-.61-2.62,1.53-.98-.1-2.01.08-3,0-.55-.67-1.55-.92-3-.75-.69.08-1.54.04-2.25,0l-1.5-.75c-11.59-1.73-23.7-5.39-34.46-6.74-.51-.48-1-.98-1.5-1.5-.27-.2-2.87.09-3.75,0-.51-.46-1.01-.96-1.5-1.5-.33-.33-7.2-1.7-8.99-2.25l-1.5-.75c-1.05-.31-2.47-.37-3.75-.75-1.34-.77-2.59-1.52-3.75-2.25-1.92-.54-2.99-1.01-4.49-1.5-2.45-1.14-1.37-2.71,1.15-2.85,11.61,4.96,24,7.4,36.31,9.44,1.81-1.41,4.13-1.54,6.97-.41,1.43-6.11,1.55-11.4-1.1-17.19l1.63-.99c4.26-1.9,9.52-1.66,13.48.75Z"/>
    <path class="cls-7" d="M108.1,184.34c.49-2.16,2.48-2.16,3,0,.09.06-.41,1.05.45,1.57,1.64.99,6.91,2.6,9.17,3.42,13.47,4.91,28.27,9.74,42.07,13.37,1.2.31,2.77,1.07,3.75,1.87l-.96,1.44c-1.28-.25-8.77.4-8.14,1.23.43.56,11.91,6.06,12.69,6.15,1.32.15,6.53-4.09,7.48-5.58l1.66-.25c8.5,1.72,17.05,3.67,25.47,5.25.84-.23,1.68-.44,2.54-.55s1.64-.17,2.43-.06c10.77,1.53,21.58,3.11,32.35,4.69.79.12,1.56.4,2.33.72s1.56.75,2.31,1.2c-.71,1.94,1.36,3.5,1.42,4.83.14,3.04.76,5,.85,6.85.09,1.72-2.48,4.66-.77,7.8-2.1.84-5.72-.88-7.07-.78-.47.04-.37,1.51-.85,1.55-1.02.08-4.5-1.19-6.15-1.32-11.44-.93-19.52-4.03-30.36-7.85-1.4-.49-2.28-1.52-2.02.9-20.46-6.61-35.15-15.57-53.91-25.13-11.22-5.72-32.9-14.38-41.23-21.33,0-1.01.87-.72,1.5,0Z"/>
    <path class="cls-15" d="M383.79,328.97c1.3.54,1.4,1.15,0,1.5-.31,1.72-3.54,2.3-3.75,0v-.75c-.23-1.02.62-1.15,1.5-.75.59-.11,1.59-.04,2.25,0Z"/>
    <path class="cls-15" d="M413.76,365.69c-8.48-2.41-17.22-4.69-26.23-6.83.39-3.83-.04-7.76-1.29-11.79,2.35-3.14,2.6-6.77.76-10.88-6.64,1.4-10.48-2.25-3.2-5.72.28-.66,1.03-.91,2.25-.75.73.08,1.54-.1,2.25,0,2.27.79,4.52,1.54,6.74,2.25,5.25.73,10.46,1.81,15.73,2.25.62.44,1.37.94,2.25,1.5.29.22,6.44.32,7.13-.74,2.59-5.76,11.39-34.55,16.63-35.88,1.67-.43,4.13,1.58,5.13,2.86,6.22,7.94,5.04,40.14,3.11,50.4-1.47,7.85-4.59,14.54-13.72,14.76-4.36.1-12.87-.88-17.52-1.42Z"/>
    <path class="cls-27" d="M344.84,387.42c2.45.21,1.23-1.04,1.14-2.23-.33-4.75-.77-9.51-1.14-14.25,2.5-.78,1.7,3.13,2.32,3.66.76.65,5.69-1.14,6.53,2.11.22.85-.43,2.1-.27,3.24.98,7.29-1.39,11.1-1.07,15.29.58,7.59,2.4,14.03.51,22.3-.29,1.29-1.71,2.46-1.81,4.09-.13,2.06,1.83,4,1.89,5.26.05,1.05-1.23,1.84-1.33,2.9-.28,3.08.42,6.61-.2,9.54-.33,1.57-2.06,3.15-2.04,4.67.02,1.11,1.44,8.81,1.9,10.04s2.65,2.19,1.8,4.56c-3.52-.68-15.75,4.41-17.98,3-.2-.13-2.24-3.93-2.27-4.16-.21-1.49.75-3.45.84-5.21.46-9.14,1.87-19,2.24-28.46.1-2.67-.99-4.96-.77-7.41s2.34-4.71,2.21-6.78c-.11-1.74-1.88-3.19-2.03-4.64-.11-1.04.67-2.24.48-3.53-.66-4.42-3.7-13.5-3.69-16.23,5.18-.11,8.46,2.22,11.62,5.99,1.73.72,1.16-2.93,1.11-3.74Z"/>
    <path class="cls-15" d="M389.04,442.87c-12.91,10.12-10.94-6.25-8.18-14.28-.83-3.83-.63-7.38.61-10.65l-3.37-35.89c.31-4.34,3.41-6.42,6.75-8.49,2.21-8.91,6.15-2.31,8.8,2.28l2.13,1.84c.58,1.27.99,2.45,1.5,3.75.73.93,1.48,1.93,2.25,3,1.24,3.61,2.81,6.76,3.75,10.49.8,1.66,1.55,3.41,2.25,5.25.33,2.31.45,5.07.75,7.49v5.25c-1.33,10.6-7.35,24.72-17.23,29.97Z"/>
    <path class="cls-10" d="M386.04,329.72c-.43,1.03-1.47.61-2.25.75,0-.5,0-1,0-1.5,1.25.08,2.03.73,2.25.75Z"/>
    <path class="cls-10" d="M383.79,330.47c0,.42-.08,1.44,0,1.5.37.27,5.39-.28,6.74.76.2,1.24-1.82.81-2.64.77-3.05-.11-7.31-2.43-6.34,1.46,1.7.44,5.43-1.08,6.57.16.6.65,1.85,7.38,1.71,8.43-.23,1.62-2.05,2.06-2.09,3.6-.12,4.26,3.51,6.59.57,11.04,5.63,1.16,11.42,2.09,16.95,3.63,1.06.3.94,1.39,1.58,1.57,1.56.45,7.14-.45,6.94,2.29-9.3-1.09-18.51-3.58-27.71-5.24-.66,2,1.05,1.28,1.3,1.61.15.2-.52,1.47-.03,2.65,1.6,3.83,6.35,8.34,8.46,12.97-3.41.97-4.94-5.91-6.15-6.58-3.44-1.9-2.54,1.46-3.22,2.81-1.24,2.47-6.37,2.28-6.87,8.74l3.48,35.84c-2.55,3.75-.3,6.62-.7,10.54-.29,2.86-2.14,6.26-2.12,9.72.01,1.53.39,6.31,2.29,6.24.44-.02,6.03-1.84,6.54-2.12-2.74,3.54-7.02,6.2-11.24,7.49-.8.25-6.03,1.57-6.36,1.54-4.81-.4.75-5.44,1.44-6.84,2.47-4.99,1.05-5.86.49-10.12-.89-6.75,2.44-6.29,2.83-8.29.17-.89-1.37-2.66-1.45-4.4-.23-5.33.93-11-.03-17.14-.45-2.85-2.97-8.89-2.86-10.64.1-1.49,1.84-1.97,2.19-3.7.44-2.21-.32-5.06.06-7.44.31-1.97,1.85-3.36,2.16-5.34,1.89-12.13-2.55-18.94-3.66-29.97-.33-3.24.53-7.55-.05-10.44-.34-1.72-2.03-2.37-2.16-3.11-.09-.53,1.43-3.16,1.95-3.28,1.35-.33,3.5.16,5.13.01,1.06-.1,2.08-.71,2.58-.75.93-.07,1.69.36,3.75,0Z"/>
    <path class="cls-9" d="M330.6,546.28c.51.63,1.51.88,3,.75,3.59-.38,8.07.65,11.99.75.64.37,1.14.37,1.5,0,3.19.05,6.45,0,9.36,0h20.98c3.44,0,5.21-.42,9.36,0,.14.01.57.62,1.18.69,6.63.77,13.08-2.3,19.79-1.44.56,2.49-3.03,1.18-5.09,2.01-.8.32-.71,1.41-1.47,1.69-.96.35-5.04.44-5.43.81-1.88,1.78,3.74,1.56,4.54,1.82,3.17,1.05,3.93,5.79,2.95,8.66-6.16.98-12.38,2.63-18.73,3-9.46.55-21.19.37-30.72,0-3.96-.15-8.75-.44-12.74-.75-3.04-.72-2.36-4.21-.04-5.62,5.42-.48,4.88-2.16-1.62-5.03l-1.49-2.78c-3.24.04-13.82-.71-8.83-4.56.48.06,1.02-.07,1.5,0Z"/>
    <path class="cls-23" d="M224.97,482.59c13.55,4.75,26.88,8.22,40.97,11.14,1.38.28,2.92-.67,2.48,1.6l-.9,1.42c-3.03-.79-5.08.88-6.14,5-8.4-.04-8.41.77-.03,2.45l11.47,2.23.84,1.64c1.1,0,1.35.64.75,1.5,1.44,2.4-1.32,11.14-5,9.16l-.99.58c-19.58-7.23-42.82-16.24-58.43-29.97-2.38-3.09-.31-4.15,2.25-1.5.25-.65.69-1.02,1.35-1.08l9.61,4.12c3.88-.84,9.39-2.67,2.51-4.12-2-1.11-3.2-3.08-.73-4.17Z"/>
    <path class="cls-27" d="M312.62,504.32c5-3.54,7.42,6.53,3.75,8.99.04,1.44.89,4.06.68,4.76-.3,1.01-1.97,1.17-2.52,2.02-1.08,1.68-.24,4.53-4.15,4.46-.42-1.37-.18-3.54-2.25-2.99-.17.92.24,4.27,0,4.49-.37.34-5.02-.92-4.5,2.24,2.48-1.05,3.05,1.33,3.53,1.47,7.88,2.22,17.6.43,25.68.79l-1.5,4.49c-24.7-2.58-40.07-7.29-62.93-15.74-.6-2.69,2.14-.9,2.9-1.58.33-.29,2.1-6.97,3.09-8.16-.05-1.11,1.12-1.08,1.5,0,.91-2.02,2.11-2.08,3,0,.53-.96,1.55-1.26,3.06-.92l9.84,1.77c1.4-2.78,2.33-4.07,5.65-4.21,3.23-4.14,11.83-5.5,15.16-1.88Z"/>
    <path class="cls-7" d="M245.2,523.8c9.78,4.26,21.15,7.92,28.47,10.09,19.01,5.62,35.65,9.79,55.44,12.4-.25,2.98-.09,1.83,1.81,2.27,3.19.73,6.16.9,9.42.73-2.76,4.41,4.23,3.96,5.67,6.75.45.88-.18,3.57-.44,3.74-.36.24-6.75-1.8-4.48,4.49-6.37-.5-14.72-1.28-20.98-2.25-.88,2.02-4.91.69-5.24-1.5-10.1-1.79-18.01-4.15-27.72-6.74,2.61-2.34,7.63-2.28,10.53-3.33.32-.12,4.29-2.48,4.44-2.7.44-.64-1.42-3.16-2.01-3.75-8.3-2.4-16.74-4.33-24.94-7.09s-18.24-6.58-25.98-9.98c-1.27-.56-4.33-1.25-4-3.12Z"/>
    <path class="cls-18" d="M577.08,194.83l2.16.99c7.36,20.91,3.43,43.59-.65,64.87-2.69,14-6.58,28.85-11.07,42.49-6.25,18.98-13.72,35.2-22.29,52.44l-1.11.32c-4.5,9.95-10.71,19.6-16.8,28.96-4.46,6.85-10.2,14.61-16.16,19.75-.74,1.9-2.1,3.57-3.75,4.5.85,1.61.21,2.18-1.5,1.5-.45,2.1-1.45,3.35-3,3.75-1,3.08-4.67,8.07-8.24,8.24-.73,2.46-2.07,3.7-4.49,4.5.82,1.94-.91,4-3,3-3.26,1.01-5.35,4.58-7.86,6.78-.65.57-1.64.53-1.87.72.24-2.63,3.45-5.84,5.27-7.88,8.79-9.85,22.78-19.82,29.53-30.41.51-.8.17-2.26.58-2.76.26-.32,2.14-.38,3.27-1.59,1.26-1.35,1.71-4.13,3-6,4.35-6.32,9.25-11,12.54-17.46,6.61-13,15.2-25.52,21.26-39.4,9.16-20.96,14.8-42.82,19.9-64.77s9.1-40.63,4.96-62.33c-1.88-9.9-7.19-19.9-17.32-23.14-15.04-4.82-31.92-2.1-46.28,3.21-.65-.21-.64-.46,0-.75,22.26-8.29,49.3-15.2,62.93,10.49Z"/>
    <path class="cls-25" d="M203.25,409.15c-22.53-4.35-42.6-7.82-57.25-27.04-36.42-47.78,8.53-110.83,64.79-100.74,1.25.22,2.62.08,2.2,1.88-.87.45-2.12.7-3.75.75-1.62-.15-3.58-.03-5.24,0-1.13-1.62-2.25-1.01-3.85-.09l-.65-.66c-1.97.13-4.03-.18-5.99,0-.42,1.43-1.08,1.43-1.5,0-5.22.88-9.96,2.13-14.23,3.75-.4,2.38-4.74,4.45-6.74,3-.43.88-1.31,1.73-2.25,1.5.19,1.9,0,2-1.5.75l-1.23,2.03c-37.57,19.96-38.68,79.52-.19,99.8l1.42,2.33c.86-.91,4.26.12,4.49,1.5,2,1.41,5.12,2.13,9.37,2.18,6.25.87,11.62,2.89,16.1,6.06l2.25.75c1.6-2.92,7.54.57,3.75,2.25Z"/>
    <path class="cls-4" d="M348.58,496.08c.57,2.79-2.44.91-2.97,1.52-.22.25.22,1.97-.42,2.98-.37.58-1.81.56-1.93,1.22-.32,1.81,3.79,7.53,1.56,10.77-1.24.1-2.55.69-4.08.78-8.02.45-16.34-.39-24.39-.03-.13-4.24,1.59-8.31-3.75-8.99-1.99-.2-1.91-.94,0-1.5.31-1.29.76-2.24,2.25-2.25.23-.77.73-1.27,1.5-1.5,1.81-.06,6.86-1.5,8.62-1.5h11.24c3.47,0,8.11-1.62,12.36-1.5Z"/>
    <path class="cls-28" d="M263.18,380.67c-4.15-.82-1.2-4.71,2.35-4.82.58-2.08,1.31-3.5,3.68-3.59l.2-6.46c1.43-1.37,1.38-2.81-.17-4.32.31-2.99-.46-5.34-2.3-7.03-.83-2.4-1.58-8.81,2.49-8.26l.33-4.33c-3.76-3.37-5.64-7.88-5.65-13.54-8.97,1.81-14.5-4.18-18.77-11.27-4.4-12-11.39-21.4-20.96-28.2l.6-1.1c8.33,1.93,16.12,11.92,20.23,19.11,2.07,3.61,4.63,13.7,9.38,14.6s8.29-1.23,13.05,1.93c6.48,4.31.87,8.75,1.65,11.8.37,1.47,4.38,3.91,5.51,6.52,2.27,5.24-.64,8.26-.16,12.28.33,2.73,4.44,4.64,4.24,8.96-.13,2.84-3.94,8.46-5.95,10.6-2.36,2.51-6.69,5.38-9.74,7.12Z"/>
    <path class="cls-25" d="M42.18,256.28c10.45,57.2,38.41,118.9,73.86,164.8l15.29,18.8c-3.07-2.8-13.01-10.61-15.01-13.84-5.89-9.5-14.89-25.38-22.45-33.37-.72-.34-1.22-1.09-1.5-2.25-.41-.92-1.02-2.08-1.5-3l-2.83-2.09c-16.25-26.78-28.93-56.1-38.77-85.78-2.04-6.14-11.34-34.77-9.97-39.15.24-.78.68-1.41,1.37-1.87-.09-1.76-.45-2.6,1.5-2.25Z"/>
    <path class="cls-7" d="M196.5,471.35c.83.39,2.1.41,3,.75.51,1.25,1.01,1.75,1.5,1.5,4.31,2.54,18.36,7.03,23.97,8.99-.52,4.13,4.48,2.81,5.15,3.84.45.7.24,3.48-.62,4.07-.27.19-6.01,1.89-6.34,1.86-2.11-.18-8.38-3.63-10.93-4.52-2.14-.81-4.52-1.7-7.16-2.68-3.73-2.96-7.58-5.32-11.57-7.07-2.88-3.87-5.16-7.57,1.57-6.37.03,0-.38,0-.49-.31-.17-.43,1.23-.49,1.92-.07Z"/>
    <path class="cls-19" d="M299.89,498.33c1.16-.55,2.56-.41,3.75,0,4.46-.1,8.38.9,12.74.75.56,1.92-1.33,1.33-1.5,1.5-.86.67-1.61,1.41-2.25,2.25.13.37-.08,1.04,0,1.5-1.71-.22-8.79-.58-10.13-.08-1.75.66-2.7,2.29-4.3,3.26-.96.58-2.55.26-3.34.76s-1.31,3.42-2.22,3.6c-2.09.41-10.91-1.85-13.72-2.3-3.47-2.18,1.4-3.85,4.08-4.12.15-2.1.76-3.74,1.82-4.94l-15.35-1.55c-2.18-.94-2.71-3.01-.29-3.63,10.11.65,20.73,1.38,30.72,3Z"/>
    <path class="cls-9" d="M268.42,495.33c.25.01.5-.02.75,0-.09,2.61-.47,2.07,1.84,2.25s17.72,1.62,18.39,2.25c1.86,1.77-3.95,1.67-4.38,2.36-.47.75.29,2.71-.78,4.09-1.42,1.82-5.39-.08-5.32,3.29-.93-.15-2.05.13-3,0-.71-.47-1.46-.97-2.25-1.5-3.07-.42-20.45-3.38-20.97-5.63-.72-3.12,7.71-1.35,8.21-1.9.2-.23-.13-1.7.17-2.44.43-1.04,1.51-.99,1.9-1.52.47-.64.09-1.87.21-2,.18-.2,3.89.69,5.24.75Z"/>
    <path class="cls-6" d="M266.92,354.45c4.88-.32,3.02,4.49,3.85,7.04.39,1.19,2.03,1.09,2.13,1.23.79,1.13-1.77,2.28-2.09,3.5-.36,1.37.87,5.06-.5,7-.53.74-1.93.48-2.44.9-.78.64-.39,2.19-1.44,2.88-2.24,1.46-4.74-.32-3.25,3.68.88,2.37,1.03,1.02,1.5,1.5.14.14-.09,1.08,0,1.5.56,1.49-1.52,2.25-2.68,2.04-5.74-1-7.27-11.88-1.79-15.08-4.47-4.13-3.82-11.65.43-15.73,1.34-1.29,5.54-2.83,6.29-.46Z"/>
    <path class="cls-22" d="M201.75,396.41c4.02.22,6.58,3.8,11.24,3,.7,3.5-1.4,1.49-3.43,2.94-2.17,1.56-2.52,4.96-3.32,6.8l-.75.75c-.12.06-.53.03-.75,0-1.07-.13-.81.06-1.5-.75-.11-.13.23-.99-.13-1.34-.42-.39-2.7-.64-3.62-.91l-2.25-.75c-7.65-2.54-15.4-4.15-23.09-6.54-1.26-.39-2.84.53-2.38-1.7.99-1.32,3.97-.83,4.49.75.59.35,1.34.35,2.25,0,1.2-1.44,2.54-1.44,3.75,0,1.85-2.14,4.59-2.39,8.24-.75,1.43-2.53,9.56-4.2,11.24-1.5Z"/>
    <path class="cls-1" d="M41.43,194.08c5.03-13.25,11.13-18.81,25.91-21.44,8.84-1.57,24.55-2.28,30.6,5.08,3.59,1.03,5.98,2.74,7.17,5.12.65.21.64.46,0,.75-26.85-10.51-61.75-11.61-65.93,24.73-.21.65-.46.64-.75,0-.05-2.04-.58-3.96-.75-5.99.58-2.23,1.82-4.73,3.75-7.49.07-.23-.07-.52,0-.75Z"/>
    <path class="cls-29" d="M408.51,233.8c.65.21.64.46,0,.75-4.81,1.44-7.6,2.85-12.74,3.75-.7.95-1.95,1.45-3.75,1.5-.49.05-1.01-.04-1.5,0-.74.94-1.99,1.44-3.75,1.5-.61.07-3.61.61-3.75.75-.15.98-.64,1.23-1.5.75-.75.06-5.03.6-5.24.75-.47.48-.97.98-1.5,1.5-.68.11-1.51-.05-2.25,0-.64-.36-1.14-.36-1.5,0-.5.01-1-.01-1.5,0-1.07.61-2.07,1.11-3,1.5-.5-.03-1,.02-1.5,0-2.82.79-5.56,1.04-8.24.75-.25.61-.5.61-.75,0,.57-3.49,8.22-2.44,10.81-3.05,2.26-1.74,8.65-1.32,10.19-2.55,1.09-.88.41-2.58.86-3.25.36-.54,2.85-.73,3.82-1.09.89-.33,1.21-1.27,1.29-1.3,2.97-.99,3.83,1.19,5.28,1.87,3.27,1.54,14.14-4.1,17.8-4.77,1.65-.3,2.27.67,2.39.64Z"/>
    <path class="cls-28" d="M239.2,439.13c2.33.99,4.08,2.24,5.24,3.75l2.2-.4c5.07,3.17,10.59,5.42,16.22,7.41l1.06,1.98c.5-.22,1.01-.42,1.53-.51.93-.16,15.87,4.39,18,5.29.93.39,1.61,1.17,2.19,1.96v2.25c-17.81-3.75-34.97-10.15-49.54-21.26-1.02-.78-2.26-1-2.16-2.72,2-.88,4.51.15,5.24,2.25Z"/>
    <path class="cls-20" d="M211.49,414.4c6.14.3,2.85-4.33,3.74-5.25.19-.2,4.55-.04,5.47.16,5.84,1.3,1.89,5.37,2.88,8.33.67,2.01,5.62,1.2,3.64,7.24-2.79-.22-3.75-2.29-6.73-.75,2.52-7.9-1.02-4.37-4.5-5.99-1.3.39-2.54-.36-3.75-2.25-.15-.4-.51-.95-.75-1.5Z"/>
    <path class="cls-29" d="M317.87,251.78c.33-3.75,6.68-2.01,9.4-2.23,7.29-.59,15.87-1.27,23.02-2.43,1.29-.21,2.91-1.41,3.87-1.38.69.02.33,1.46.43,1.55,1.6.04,1.42.91,0,1.5-.5.04-1-.02-1.5,0-3.23-.1-7.48.28-8.24,1.5-1.25.02-2.5-.03-3.75,0-3.5.25-7,.5-10.49.75-.75,0-1.5.03-2.25,0-1.96.48-3.96.98-5.99,1.5-1.54-.07-3.01-.75-4.49-.75Z"/>
    <path class="cls-28" d="M162.79,451.12c8.06,5.59,25.24,16.23,33.71,20.23l-1.1,1.48-3.39-.73c.48.99,1.29,5.76,1.49,5.99s1.61-.78,2.28-.37c2.22,1.34,6.77,5.44,8.98,6.69,1.7.96,7.32.54,7.47,3.43-.74-.26-1.53-.38-2.24-.75v2.25c-2.55-2.23-12.48-8.23-16.49-11.24-10.84-8.13-20.47-16.27-30.72-25.48-.86-.99-.86-1.49,0-1.5Z"/>
    <path class="cls-25" d="M38.43,208.32h.75c-.13,1.18.06,2.52,0,3.75l-.75,2.25c.24,3.45.3,8.58,0,11.99-2.62.09-2.07.46-2.25-1.84-.24-3.06-.36-13.25.78-15.6.32-.65.85-.63,1.47-.55Z"/>
    <path class="cls-25" d="M133.57,442.12c4.28,3.92,7.17,6.55,10.49,11.24,3.6,2.9,10.32,7.55,11.99,11.99.42.32,1.4.87,2.25,1.5-3.16.37-1.81-.34-2.25-1.5-5.62-4.36-7.73-5.98-11.99-11.99-.14-.11-1.16-.23-1.88-.71-2.54-1.69-7.79-7.45-8.61-10.53Z"/>
    <path class="cls-25" d="M39.93,241.29c.55,4.34,1.48,9.14,2.25,13.49-2.94.17-1.92.25-2.22-1.87-.4-2.82-1.07-5.58-1.43-8.36-.17-1.27-.96-3.77,1.4-3.27Z"/>
    <path class="cls-21" d="M233.21,434.63c1.92.82,5.72,1.6,8.04,2.79.66.34,2.68,2.16,2.45,3.2-1.31.55-2.81.05-4.49-1.5-1.79-.76-3.52-1.53-5.24-2.25-.21-.09-.52.08-.75,0-1.31-1.04-1.93-1.74,0-2.25Z"/>
    <path class="cls-28" d="M233.21,434.63v2.25c-4.19-1.49-6.41-5.74-8.99-8.24,4.01.39,5.08,4.32,8.99,5.99Z"/>
    <path class="cls-28" d="M212.98,283.26c1.42-.03,3.13-.14,4.49,0,.51.47,1.01.97,1.5,1.5.13.09,2.41.61,3,.75,1.69.32,2.19.82,1.5,1.5.22,2.06-2.25,1.52-3,0-4.59-1.12-5.78-2.49-11.24-3,.63-1.2,2.54-.72,3.75-.75Z"/>
    <path class="cls-25" d="M39.18,230.05c.09,4.09.26,5.8.75,9.74-3.04.22-1.86.12-2.23-1.86-.71-3.83-.58-4.33-.02-7.88.56-1.31,1.23-1.48,1.5,0Z"/>
    <path class="cls-7" d="M213.73,507.32c4.84,3,11.33,6.35,16.48,8.99-.45,1.5-2.25,0-3.01-.37-2.01-.97-3.97-2.04-5.99-3l-7.48-5.63Z"/>
    <path class="cls-29" d="M302.13,251.78c-.36-2.64,1.09-1.08,2.28-1.09,2.36-.02,4.56-.13,6.89.11,1.79.19,1.52-1.86,1.32,1.73-3.59-.03-7.26-.64-10.49-.75Z"/>
    <path class="cls-27" d="M349.33,461.61c-4.35.98-7.42,1.76-11.99,2.25-.43-2.36,1.16-1.28,2.57-1.52,2.75-.47,6.93-1.98,9.42-.73Z"/>
    <path class="cls-17" d="M514.15,184.34v.75c-2.73,1.01-5.92,3.17-8.99,4.5.89-4.57,6.1-4.17,8.99-5.25Z"/>
    <path class="cls-10" d="M420.5,230.05c.44,2.02-1.03,1.44-2.22,1.86-3.39,1.19-6.6,1.69-9.76,2.64v-.75c4.07-.8,7.94-2.7,11.99-3.75Z"/>
    <path class="cls-27" d="M341.09,250.28c-2,.65-5.99,1.53-7.95,1.55-1.48.02-2.41-.8-2.54-.8,1.71-.73,5.37-1.48,7.15-1.52,1.95-.04,3.17.77,3.34.77Z"/>
    <path class="cls-1" d="M162.79,451.12v1.5c-.91-.82-5.15-3.81-5.25-4.13-.89-2.87,3.93.42,4.46.82.7.52.7,1.75.79,1.81Z"/>
    <path class="cls-27" d="M353.08,248.79c-2.31.9-5.78,1.46-8.24,1.5.05-.42-.15-1.37,0-1.48.26-.19,5.58-.81,6.38-.83,1.69-.04,1.75.82,1.85.81Z"/>
    <path class="cls-21" d="M223.47,287c.07-1.17,1.12-1.09,1.5,0,.03.26-.06.55,0,.75.87,2.69,5.06,4.22,7.5,6.36,8.03,7.04,9.45,14.23,14.57,22.9,2.73,4.62,7.17,9.66,12.87,10.2,1.29.12,2.68-.74,4.21-.49,2.91.48,1.89,7.32,2.45,8.94.71,2.03,4.46,4.66,4.66,5.76.06.31-.34,6.07-.57,6.29s-2.3-.16-3.01,0c.48,2.83.74,4.2-.74,6.74-6.29.41-7.98,3.44-8.26,9.41-.21,4.61,3.47,5.09,3.07,7.39-.06.34-3.24,2.25-3.65,5.48-.17,1.37,1.76,6.71,2.84,7.37.78.48,2.62-.34,3.75-.43.25-.02.5.03.75,0,5.38,10.3,5.01,22.47,2.18,33.67.04,9.72,1.92,19.54,3.92,29.05,4.46,5.98.28,8-5.19,4.77-.55.81-1.36.84-2.41.71-7.8-2.82-12.46-4.53-19.48-8.99-1.54-1.36-1.54-2.11,0-2.25.12-.16,1.77.8,1.56-1.84-.19-2.36-2.71-3.96-2.21-5.87.28-1.09,4.24-3.57,2.9-5.02-.64-.69-2.64,2.08-4.77,1.44-3.78-1.15.59-3.6.93-4.13,1.4-2.19,5.5-11.14,5.14-13.31-2.4-2.37-4.46-12-6.52-13.61-2.33-1.83-2.06,4.6-4.51,3.01,1.05-3.6,4.19-8.91,3.75-12.71s-.87-4.99.18-9.59c.57-2.52,2.05-3.93,2.03-6.8,0-.47-.58-4.06-.74-4.21-.78-.72-10.47.1-10.46-.42.79-2.84,7.84-9.92,5.11-12.22-.5-.42-3.31.09-3.6-1.27-.27-1.28,1.85-1.95,2.12-3.14.23-1.01-.72-2.04-.27-3.2.41-1.06,2.71-2.1,2.61-4.15-.05-1.03-1.28-1.89-1.44-3.03-.42-3.07-.27-6.29-.97-9.51-.63-2.93-2.49-3.37-2-7.62.42-3.63,2.01-2.17,3.32-3.4,2.1-1.96,5.72-5.41,3.76-8.31-.46-.68-2.21-.78-3.03-1.46s-5.42-5.16-5.61-5.64c-.7-1.74,3.12-1.21,3.67-3.11.36-1.24-.69-2.7-1.42-3.65-.78-1.02-7.43-6.89-8.51-7.58-1.65-1.05-5-.31-4.99-3.27,1.35.33,1.81.17,3,0Z"/>
    <path class="cls-4" d="M365.06,246.54c-2.37,1.57-5.59,1.27-8.24,1.5-.65-.21-.64-.46,0-.75,3.57-.37,4.44-.88,8.24-.75Z"/>
    <path class="cls-25" d="M215.98,418.14c.01.5-.02,1,0,1.5-3.7.25-2.97-1.75-3.75-3.75,2.18-.83,3.34,2.06,3.75,2.25Z"/>
    <path class="cls-10" d="M388.29,329.72c2.16.31,7.49.09,6.74,2.25-2.15-.3-7.49-.09-6.74-2.25Z"/>
    <path class="cls-27" d="M328.35,251.03c.82,2.32-3.85,1.6-5.99,1.5-.81-2.33,3.84-1.59,5.99-1.5Z"/>
    <path class="cls-10" d="M406.27,412.9c-1.24-.95-1.24-4.3,0-5.25.05.37.85,1.15.85,2.62s-.8,2.24-.85,2.62Z"/>
    <path class="cls-10" d="M403.27,394.91c2.32-.58,1.98,3.39,2.25,5.25-2.03.7-1.69-3.03-2.25-5.25Z"/>
    <path class="cls-25" d="M218.98,423.39c-.91-.89-2,.42-3-3,2.25-.28,3.28.71,3,3Z"/>
    <path class="cls-7" d="M240.7,521.56c-.51,1.6-2.2-.05-2.93-.44-1.85-1-6.02-2.08-6.06-4.05,2.94,1.47,6.04,3.12,8.99,4.5Z"/>
    <path class="cls-4" d="M303.63,498.33c-1.54.03-1.09.43-3.75,0,.69-1.34,2.85-.95,3.75,0Z"/>
    <path class="cls-4" d="M395.78,238.29c.56,2.88-3.04,1.42-3.75,1.5.94-1.05,2.43-1.27,3.75-1.5Z"/>
    <path class="cls-4" d="M390.53,239.79c.55,2.87-2.98,1.41-3.75,1.5.9-.96,2.49-1.39,3.75-1.5Z"/>
    <path class="cls-28" d="M199.5,472.1c2.34.9,1.38,1.43,1.5,1.5-.91,1.99-1.96,2.21-2.99.01,1.17.11,1.78-.28,1.49-1.51Z"/>
    <path class="cls-7" d="M206.24,232.3c1.7.48,4.32.24,3.75,2.25-1.71-.52-4.32-.22-3.75-2.25Z"/>
    <path class="cls-19" d="M269.17,248.79c.86-.09,3.41-2.41,3,.75-1.09-.09-2.13.23-3-.75Z"/>
    <path class="cls-4" d="M353.08,495.33c.44,3.19-2.27.81-3,.75.88-.89,1.86-.8,3-.75Z"/>
    <path class="cls-7" d="M333.6,547.03c-.84.09-3.42,2.41-3-.75,1,.15,2.11-.28,3,.75Z"/>
    <path class="cls-18" d="M476.69,438.38c-.73.57-1.12,2.49-3,2.25.61-.79.02-2.84,3-2.25Z"/>
    <path class="cls-10" d="M397.28,381.42c2.06-.46,1.74,1.52,2.25,3-2.11.47-1.69-1.57-2.25-3Z"/>
    <path class="cls-27" d="M296.89,251.78c-.52-.03-1.51.11-3,0,.24-1.12,2.69-1.17,3,0Z"/>
    <path class="cls-10" d="M425.75,227.8c.47,1.84-1.47,1.97-3,2.25-.46-1.92,1.46-1.88,3-2.25Z"/>
    <path class="cls-4" d="M369.56,245.04c.5,2.06-1.13,1.61-3,1.5-.47-2.2,1.11-1.46,3-1.5Z"/>
    <path class="cls-28" d="M221.22,425.64c2.42-.22,2.47-.18,2.25,2.25-.67-.67-1.54-1.52-2.25-2.25Z"/>
    <path class="cls-29" d="M314.87,251.78c-1.64-2.27,2.34-3.86,1.5,0-.5,0-1,0-1.5,0Z"/>
    <path class="cls-10" d="M381.54,328.97c-.27.05-.92.8-1.5.75l-.75-1.5c.82.05,1.88-.24,2.25.75Z"/>
    <path class="cls-10" d="M410.76,334.21c3.92.33,1.62,1.03,2.25,1.5-1.77.03-2.6.5-2.25-1.5Z"/>
    <path class="cls-1" d="M39.18,230.05h-1.5c.15-.98.74-2.11.75-2.25.97.36.73,1.43.75,2.25Z"/>
    <path class="cls-4" d="M356.82,494.58c.34,3.01-1.43.87-2.25.75.35-1.02,1.45-.67,2.25-.75Z"/>
    <path class="cls-27" d="M356.07,247.29c.24,0,.51.03.75,0v.75c-.17.01-1.04.66-2.25.75v-1.5c.09.09,1.07-.01,1.5,0Z"/>
    <path class="cls-10" d="M376.3,328.22c-.25,1.19-1.72.88-2.25,0,.25.01,1.01-.1,2.25,0Z"/>
    <path class="cls-25" d="M221.97,285.51c2.25.54,2.69-1.28,3,1.5-.49.04-1.02-.07-1.5,0l-1.5-1.5Z"/>
    <path class="cls-25" d="M108.1,184.34h-1.5c-.29-.24-1.08-.59-1.5-.75v-.75c.51-2.81,5.29-.8,3,1.5Z"/>
    <path class="cls-1" d="M39.18,212.07c-.04.82.23,1.89-.75,2.25-.04-.63-2.3-2.63.75-2.25Z"/>
    <path class="cls-19" d="M265.43,248.04c1.22-1.34,1.76-.98,1.5.75-1.32-.07-1.42-.74-1.5-.75Z"/>
    <path class="cls-4" d="M372.56,245.04c-.86.05-1.12-.01-1.5,0l.38-.75,1.12.75Z"/>
    <path class="cls-25" d="M206.24,411.4c1.59-.18,1.68-.09,1.5,1.5-2.4.04-1.17-1.1-1.5-1.5Z"/>
    <path class="cls-6" d="M208.49,412.9c1.84.09,1.61-1.71,3,1.5-2.15-.11-1.07-1.72-3-1.5Z"/>
    <path class="cls-4" d="M376.3,243.54c-.53.37,1.35,1.04-1.5,1.5-.18-1.59-.09-1.68,1.5-1.5Z"/>
    <path class="cls-4" d="M383.04,242.04c-.14.14.09,1.06,0,1.49-.67.27-1.4-.75-1.49-.75l1.5-.75Z"/>
    <path class="cls-7" d="M229.47,239.79c1.59-.18,1.68-.09,1.5,1.5-2.82-.36-.99-1.13-1.5-1.5Z"/>
    <path class="cls-7" d="M224.22,238.29c1.57-.2,1.69-.07,1.5,1.5-2.76-.3-1.01-1-1.5-1.5Z"/>
    <path class="cls-7" d="M213.73,235.3c1.25-1.32,1.74-.99,1.5.75-.78-.24-1.35-.71-1.5-.75Z"/>
    <path class="cls-10" d="M429.49,226.31c.18,1.59.09,1.68-1.5,1.5.57-.51-1.39-.89,1.5-1.5Z"/>
    <path class="cls-17" d="M497.66,193.33c.19,1.58.08,1.69-1.5,1.5.59-.57-1.02-.18,1.5-1.5Z"/>
    <path class="cls-7" d="M243.7,523.05l-.38.74c-1.39.26-1.19-.22-1.12-1.49.51.24,1.01.53,1.5.75Z"/>
    <path class="cls-27" d="M470.69,524.55c.22,1.53.03,1.72-1.5,1.5.15-.2-.22-1.23.03-1.47s1.11.1,1.47-.03Z"/>
    <path class="cls-17" d="M502.91,190.34c.21,1.53.03,1.72-1.5,1.5.61-.65-1.25-.53,1.5-1.5Z"/>
    <path class="cls-25" d="M217.48,283.26c2.78.29,1.01,1.15,1.5,1.5-1.59.18-1.68.09-1.5-1.5Z"/>
    <path class="cls-7" d="M347.08,547.78l-.38.75-1.12-.75c.34,0,1.08,0,1.5,0Z"/>
    <path class="cls-7" d="M211.49,505.82c-.71.06-1.02-.38-1.5-.75.69-.05,1.06.5,1.5.75Z"/>
    <path class="cls-25" d="M164.29,472.85c-1.38-1.12-2-2.09-3-3l3,3Z"/>
    <path class="cls-26" d="M108.1,496.08c-10.64-10.68-32.28-32.48-37.79-45.74-2.19-5.26,4.28-3.34,1.84-8.96.62-.6,9.55,1.63,7.13-3.02-2.78-5.34-7.27.93-8.18.74-1.39-.29-1.78-2.98-2.34-2.98-1.39,0-2.46,2.13-4.06,2.69-3.25,1.13-1.84-.67-3.27-2.83-1.33-2-2.89-.81-1.43-4.13.74-1.68,2.86-3.29,3.17-5.1.39-2.24-4.23-.75-2.95-3.67.41-.93,2.08-1.3,2.84-2.41,1.02-1.5,1.28-3.27,2.69-4.81,2.95-3.23,5.25-1.75,3.4-8.21-1.87-.54-4.27,2.93-5.64.77-.8-1.27.38-2.3.32-3.43-.06-1.21-1.46-1.68-1.16-3.35.07-.38,2.17-5.86,2.44-6.06,1.64-1.21,6.19.15,7.03-1.8.89-2.06-.36-1.49-1.09-1.92-1.25-.74-5.87-2.62-6.07-2.89-1.67-2.3-.66-8.45,3.71-8.3.82.03,2.52,3.99,2.88,4.35s1.24.06,1.32.15c1.96-1.27,3.83,1.34,2.25,3,.38.8.88,1.55,1.5,2.25,1.56-1.89,6.07,2.7,4.49,4.5.15.22.03,1.65.69,2.64,15.08,22.51,31.95,44.75,51,64.05.42,2.26-1.14,1.45-2.59,1.5-3.18.11-6.8-1.13-8.48,2.04-2.34,4.41-.64,6.23-1.06,9.41-.15,1.1-1.31,2.13-1.41,3.91-.2,3.56,2.88,5.74,2.32,8.95-1.74,1.74-2.45,7.22-4.89,7.18-1.49-.02-2.84-3.15-8.18-2.29-.94.15-.23,2.86-.43,3.76Z"/>
    <path class="cls-26" d="M48.92,138.63c17.8-5.83,43.08-2.55,60.84,2.47,5.38,1.52,22.51,6.85,26.48,9.48,1.27.84,2.78,4.08,4.82,4.92.62,1.56-1.67.95-2.61,1.85-4.41,4.25,4.61,4.51.65,8.16-1,.92-4.43,1.65-3.27,3.08.19.23,4.16.82,1.3,3.57-1.45,1.39-4.71.46-5.85,1.26-.99.68-.35,2.62-.85,3.27-.28.37-3.7.98-4.18,1.83s.07,2.55-.15,2.83c-.15.19-2.34-.21-3.23,0-.62.15-.21,1.37-1.59,1.55-3.81.49-6.74-2.12-10.16,1.44-.17-.13-2.33,0-3,0-.33-1.82-2.29-1.15-3-1.5-2.65-1.32-5.62-2.69-8.06-3.94-.45-.23-1.31-2.43-3.22-3.14-12.53-4.65-32.54-2.88-43.22,5.02l-9.18,13.3c.94-2.89,2.06-7.74,3.4-10.46,1.06-2.14,4.23-2.2,1.76-6.32-1.56-2.61-3.31-.49-2.92-5.3.49-6.07,3.97-2.04,5.33-3.84,1.9-2.53-2.79-9.33-1.57-10.79l4.49.74c-1.1-4.49-.4-7.02-5.99-5.99,4.21-12.34-14.18-2.93-18.22.73-2.49,2.25-4.57,5.27-8.01,8.27-.54.47-.6.97-2.25,2.25-.48-2.02,2.08-2.03,2.25-2.25.12-.15-.06-1.62.71-2.63,5.36-7.02,20.17-17.12,28.51-19.85Z"/>
    <path class="cls-11" d="M15.96,248.04c5.11.68,1.06-6.18.87-7.28-.34-1.9,4.46-2.55,3.64-5.46l1.49,3c1.04,1.2,2.68-2.37,2.79-2.81,1.82-7.11,2.53-20.85,6.03-26.94.47-.81-.09-1.31,1.66-.97,1.01,4.83-.22,9.15,0,13.9.18,4.1.69,10.3,1.51,14.2.39,1.85,1.79,1.46,2.22,2.45,1.98,4.5.31,13.23,1.85,18.19.4,1.29,1.2,2.24,2.67,2.21.84,16.38,11.83,45.9,17.63,62.18s13.99,31.99,21.86,47.82c3.54,7.13,7.18,12.06,10.71,18.89l-7.49-2.24v4.49c8.47-2.17.47,3.63-2.25,5.25-.55-.8-3.57-3.72-4.49-4.5-1.06-.77-1.56-1.52-1.5-2.25-.85-1.25-.99-1.63-2.25-3-2.59-7.64-7.76-14.67-11.53-21.81-13.83-26.21-27.68-57.05-36.95-85.19-1.7-5.15-6.13-19.49-6.21-24.14-.09-1.22-.59-2.22-1.5-3-.29-.99-.48-2.01-.75-3Z"/>
    <path class="cls-26" d="M10.71,175.35c-.68,1.33-1.27,7.9-1.51,8.24-.1.15-1.06-.05-1.48,0,.39-4.74.76-4.61,3-8.24Z"/>
    <path class="cls-26" d="M14.46,167.11c-.18,1.05-.57,4.75-.89,5.14-.3.37-1.22,0-1.36.1-.13-2.04.26-4.29,2.25-5.25Z"/>
    <path class="cls-26" d="M7.71,185.09c-.04.95,1.33,4.24-1.5,3.75.15-1.47.07-2.86,1.5-3.75Z"/>
    <path class="cls-24" d="M18.2,254.03c-1.24-.71-1.17-1.87-1.5-3,3.61.3,1.48,2.1,1.5,3Z"/>
    <path class="cls-26" d="M15.96,164.86c.18,1.59.09,1.68-1.5,1.5.49-2.59.69-.87,1.5-1.5Z"/>
    <path class="cls-26" d="M124.97,483.34c2.9-.61,1.36,7.17-.75,6.74-1.86-.38-.27-6.52.75-6.74Z"/>
    <rect class="cls-25" x="245.2" y="565.02" width="1.49" height="2.24"/>
    <path class="cls-12" d="M614.53,200.83c.81.72,1.68,1.57,1.87,2.68,3.49,20.47,2.52,41.61,1.12,62.07.18.66.43,1.3.75,1.94-.12,1.26-.68,2.32-.75,3-1.24,1.77-2.1,9.52-.75,11.99-.15,1.16-.71,1.99-.75,2.25l-1.96,4.51c-2.53,21.29-8.33,43.21-15.64,63.1.14,2.53-.49,4.22-1.88,5.08,1.01.5,1.01,1.5,0,3-.59.58-.84,1.58-.75,3,0,.25.02.5,0,.75-1.57,1.31-2.57,3.05-3,5.25.4.34.4.84,0,1.5-2.32,1.73-2.69,2.91-3.28,5.85l-1.21.9c-1.08,3.6-3.01,4.98-3.7,6.57-2.99,6.92-8.09,21.11-12.73,26.64-.65.77-1.94.53-2.62,1.27-2.05,2.24-3.05,6.54-7.86,4.85-.41-.14-5.52-4.5-5.7-4.83-1.7-3.09,2.87-2.23,1.84-4.84-.66-1.67-6.99-2.8-9.12-3.62-1.4-.54-2.15-2.11-4.09-2.65-3.32-.93-8.1-.99-11.45-.16-.65-.21-.64-.46,0-.75l-.49-1.52c18.81-26.18,35.03-59.44,46.91-91.12,12.51-33.35,18.99-64.44,25.92-99.09.48-2.41,1.51-4.66,2.58-6.85.42-2.48,1.74-1.74,3.48-.47,1.09-1.73,2.32-2.27,3.26-.28Z"/>
    <path class="cls-13" d="M508.9,409.15c4.77-.57-.7,7.54-3.75,5.25l.68,1.53-4.6,5.83c-.81,3.6-4.2,7.73-7.32,4.63l.85,1.73c-5.71,5.36-.5,7.62,5.83,6.67,1.06.14,1.1,1.03.81,2.09-14.48,14.37-26.82,25.4-44.2,36.72.19-3.57-4.3-1.63-5.14-2.36-.19-.16-.28-1.97-1.14-2.96-1.1-1.27-4.58-1.64-4.19-3.28,1.28-.79,2.02-3.07,3.03-3.72,13.7-8.87,25.42-16.98,36.7-29.27.58-.63.56-1.71.71-1.88,1.03-1.12,2.11-2.05,3-3,1.89-1.46,3.14-1.71,3.75-.75-.86-.76-.61-2.01.75-3.75,2.68-2.94,5.75-5.51,8.24-8.24,1.43-1.23,2.18-1.23,2.25,0-.8-.53-.55-1.78.75-3.75.52-.59,1.13-1.07,1.5-1.5.95-.8,1.45-.8,1.5,0Z"/>
    <path class="cls-5" d="M523.14,392.66l1.04,1.39c-1.89,5.12,3.54,6.12,7.55,4.91l1.15,1.2v.75c-8.85,13.52-20.27,24.86-31.46,35.97-1.84-1.97-8.06.44-9.4-1.47-.27-.39-1.12-4.97-.99-5.52.38-1.51,2.04-.91,2.89-3.51,7.1-1.66,3.57-1.27,6.04-5.41.57-.95,4.29-5.5,5.2-6.58.47-.56,3.19-1.68,4.16-3.83.5-1.12-.39-1.2-.41-1.42-1.51-.42,1.03-3.24,1.5-1.5,3.39-5.05,7.14-9.97,11.26-14.78l1.48-.21Z"/>
    <path class="cls-13" d="M592.81,370.93v.75c-.72,1.9-1.5,3.44-2.25,5.25l-2.25.75c1.08-3.6-.74-6.97,4.49-6.74Z"/>
    <path class="cls-12" d="M553.1,409.9c.8.72-1.53,3.04-2.24,2.24-1.13-1.28.98-3.37,2.24-2.24Z"/>
    <path class="cls-15" d="M499.91,491.58c-.15.14-1.08-.09-1.5,0,.1-.25-.2-.87.17-1.32.31-.39,1.48-.62,2.08-.92-.51.45-.6,2.11-.75,2.25Z"/>
    <path class="cls-21" d="M260.85,79.51c1.74,2.46-3.65,9.97-3.7,12.24-.01.54.64,4.66.8,5.09.35.92,1.73.77,2.1,1.8,1.44,4.04,1.53,7.88,1.77,11.89.14,2.33,1.54,6.58.21,8.63-.56.87-2.19.01-1.85,2.52.06.45,3.43,8,3.7,8.37.56.76,1.98,1.05,2.64,1.86,1.45,1.8,4.09,7.84,5.83,9.53s3.84-.34,2.82,5.43c-2.44,0-5.64-.4-7.77-1.6-11.73-6.62-25.03-24.32-29.84-36.85-6.16-16.05-5.66-41.43.54-57.45.51-1.32,4.45-10.11,4.94-10.42,3.5-2.21.46,5.3,5.15,4.4-.07-3.03-1.78-6.35-1.57-9.37.13-1.92,6.84-5.51,7.52-2.9.35,1.33-.68,2.61-.63,3.7s1.39,2.03,1.5,3.69c.12,1.9-1.11,3.75-.82,5.93.18,1.39,1.5,2.66,1.47,3.82-.03,1.39-2.18,2.7-2.28,5.26-.12,2.93,2.22,5.14,2.28,7.56.05,1.85-1.18,2.69-1.34,3.83-.05.36.01,6.78.06,7.25.48,4.48,6.19,5.41,6.46,5.79Z"/>
    <path class="cls-28" d="M233.21,188.84c6.66,1.81,12.96,3.1,19.47,4.88,1.63.45,10.85,2.2,11.25,2.62,2.11,2.22-4.81,6-5.9,7.97-.77,1.39-2.18,6.4-1.45,7.62.19.32,1.55.57,2.11,1.23,1.63,1.92,1.65,3.98,1.49,6.41-4.49-.22-9-.39-13.48-.75-14.45-1.15-27.75-3.34-41.95-5.99.67-3.15-3.3-2.38-2.1-5.13,3.11-1.2,5.96-4.46,8.57-6.01.99-.59,5.59-2.97,6.5-3.31,1.77-.66,3.33.59,4.28-.1.81-.59.47-2.76,2.42-3.68,1.06-.5,8.05.2,8.78-.52.29-.28-.18-4.2,0-5.24Z"/>
    <path class="cls-6" d="M166.54,204.57c4.33.39,8.49,2.14,12.74,3-.22,2.5-7.71,7.49-9.23,7.36-.86-.07-15.11-6.96-15.48-7.74-.61-1.27.86-1.2,1.51-1.45,2.8-1.08,7.52-1.43,10.48-1.16Z"/>
    <path class="cls-28" d="M226.47,185.84c-.35.06-.66.39-.75.75-2.05-.69-4.03-1.3-5.99-2.25,1.44-1.54,5.18.5,6.74,1.5Z"/>
    <rect class="cls-28" x="222.73" y="188.09" width="2.99" height="1.49"/>
    <path class="cls-28" d="M205.49,178.35c-.9.07-3.38,2.41-3-.75.96.34,2.02.44,3,.75Z"/>
    <path class="cls-15" d="M450.84,165.61c.49.25.49.5,0,.75v-.75Z"/>
    <path class="cls-8" d="M583.82,145.37c1.1.77,2.54,1.39,3.75,2.25.7.23,1.42.67,1.5,1.5,1.19.56,3.84,1.14,4.49,1.5,1.65.91,3.87,3.7,5.24,5.25.4.78.9,1.78,1.5,3,.05.23.6,1.34.75,1.5l1.5.75c.1.19-.1.54,0,.75,2.46,2.78,5.06,6.81,4.49,10.49-1.05,2.03-.02,3.12,1.5,4.5,2.05-.59,3.44,3.36,1.5,4.5,1.36,1.56,1.42,5.64,1.28,8.03-.19,3.41-.92,10.59-3.53,12.2-9.85,66.32-30.76,129.03-66.07,186.07-1.21,1.95-7.62,12.06-8.84,12.51-5.79,2.13-13.14-.17-9.74-7.49-.44-.73-.36-1.33.07-1.96,5.84-8.71,11.34-17.5,16.84-26.44.43-.69.9-1.02,1.82-.82.12-1.22.62-1.97,1.5-2.25-1.47-.58-.61-2.38.75-2.25,2.63-8.23,7-16.38,11.43-24.17,16.09-39.9,31.07-85.59,26.46-128.96-2.54-5.75-3.02-11.37-1.45-16.84.6-.06.72-5.83.4-6.45-1.23-2.38-7.43-3.54-7.6.33-1.28.4-13.24-6.33-13.66-7-.84-1.36-.82-3.13.59-3.99,8.04-.87,10.23-2.96,6.56-6.29l-.02-1.2c4.09-3.11,7.71-6.92,5.72-12.73-.42-7.17,5.39-9.28,11.26-6.27Z"/>
    <path class="cls-5" d="M583.82,145.37c-4.29-.21-9.39-.69-9.81,4.87-.17,2.31,1.04,3.78.49,6.36-.52,2.43-3.32,7.97-6.41,7.51-.14,2.33,3.14,2.45,1.9,5.22-1.49,3.33-6.31,3.2-9.39,3.77-.16,3.5,2.75,3.19,4.79,4.6.74.51,1.02,1.64,1.44,1.89.69.42,5.52,2.72,5.75,2.5-.66-4.09,5.26-3.63,7.79-2.17,3.8,2.2,1.53,5.28,2.02,6.95.34,1.17,1.99,1.02,2.18,1.22,1.8,1.97-2.85,1.34-2.99,1.48-.18.19.21,1.79-.04,2.55-2.17,6.42.99,9.23,2.1,15.25,5.54,29.85-13.12,97.54-25.85,125.89-3.38,7.52-9.84,15.21-11.45,23.8-.37,1.96.87,2.09-2.22,1.87-.92-.33-.92-1.33,0-3,1.66-6.98,8.45-17.48,11.6-24.74,6.18-14.24,11.7-30.69,15.75-45.69,6.27-23.21,17.03-69.17,5.61-90.68,1.4-.86-.83-4.16-1.35-5.01-5.08-8.27-12.97-12.69-22.45-14.26-8.61-1.42-15.52.56-23.9.07-2.86-.17-4.13,1.76-5.88-2.51-.76-1.86-3.15-6.17-3.24-6.53-.45-1.83,1.81-5.51-.22-8.74-.97-1.54-2.71-.9-2.94-1.68-1.15-4.03,2.37-9.99.86-11.99-.5-.66-1.53-.71-1.83-.98-2.43-2.21,5.19-3.41,6.43-3.88,17.17-6.48,45.56-4.87,61.27,6.06Z"/>
    <path class="cls-5" d="M589.06,147.62c.13.13-.09,1.08,0,1.5-2.4-1.13-1.36-1.4-1.5-1.5.42.09,1.36-.13,1.5,0Z"/>
    <path class="cls-6" d="M273.67,580.76c2.4-2.81,5.67-.55,7.84-.76,1.02-.1,1.9-1.23,3.1-1.42,2.57-.4,5.17-.91,7.79-.82.33-.32-1.52-7.24.82-8.94.76-.56,3.7,1.2,4.41.69.28-.2,2.22-6.04,2.28-6.41.31-1.79-2.82-1.12-2.26-3.32,4.03-.91,6.04,3.76,10.17,4.51l7.05-3.77c2.04.36,4.34,1.36,5.24,1.5.31,3.52-4.78,1.79-5.25,2.25.97,2.39-.2,7.33.3,9,.29.97,1.54,2.16,2.11,3.23,1.12,2.07-.46,3.4,3.58,2.76-.49,3.36-7.4,4.23-10.12,4.48-11.97,1.08-25.44-1.28-37.07-2.99Z"/>
    <path class="cls-13" d="M618.28,267.52c-2.37.67-1.6-3.74-1.53-4.91,1.44-24.26,1.98-38.09-2.21-61.79-2.18-3.2-3.26-7.2-3.25-12,.24-3.57-.18-6.07-1.25-7.48-.39-2.76-.98-2.81-1.5-4.5-1.58-.42-2.74-3.36-1.5-4.5-1.36-3.53-2.84-7.1-4.49-10.49,1.81-.09,1.93,1.09,2.65,2.22,16.59,26.05,15.85,73.68,13.09,103.44Z"/>
    <path class="cls-13" d="M616.03,284.76c-2.35,17.53-7.53,34.5-9.74,50.21-.75,1.36-1.5,2.6-2.25,3.75-.52,2.43-.83,4.21-1.5,6.74-1.54,2.7-2.54,5.95-3,9.74-.27.74-.44,1.49-.75,2.25-.98.96-1.99,1.66-2.25,0,.63-5.74,1.63-8.14,3.52-13.34,6.41-17.63,11.99-36.55,12.22-55.09l3.73-4.27Z"/>
    <path class="cls-13" d="M617.53,270.52c-.4,3.97-.25,8-.75,11.99-2.31.53-1.6-2.09-1.49-3.35.17-1.97.56-3.99.76-6.03.14-1.42-.9-3.03,1.47-2.61Z"/>
    <path class="cls-2" d="M602.55,345.45c-1.01,3.83-1.59,5.94-3,9.74-.96-1.96.87-5.09,1.42-7.23.34-1.33-.79-2.96,1.57-2.51Z"/>
    <path class="cls-13" d="M595.8,364.19c-.1,1.35-1.67,3.64-2.25,5.25-.21.65-.46.64-.75,0,0-.08-.65-.39-.58-.98.22-1.69,1.51-5.36,3.57-4.27Z"/>
    <path class="cls-2" d="M598.8,357.44c-.67,1.61-1.24,1.52-1.45,2.06-.34.85.4,2.7-.79,3.19-1.01-.67-1.22-1.8,0-2.25.03-.98-.11-2.03,0-3h2.25Z"/>
    <path class="cls-13" d="M600.3,158.86c-1.13-.49-3.34-2.33-1.5-3,.41.46,1.44.66,1.92,1.54s-.44,1.38-.42,1.46Z"/>
    <path class="cls-2" d="M606.29,334.96c-.22,1.59-.46,4.4-2.25,3.75.36-1.67.35-4.35,2.25-3.75Z"/>
    <path class="cls-13" d="M596.55,360.44c-.02.73.1,1.57,0,2.25-.02.15-.61.46-.75.75-.01-.72-2.45-3.43.75-3Z"/>
    <path class="cls-2" d="M592.81,371.68v-.75c-.02-.5.03-1,0-1.5h.75c-.26.71-.43,1.4-.75,2.25Z"/>
    <path class="cls-13" d="M602.55,161.11l-1.5-.75c.09.09.88-.37,1.5.75Z"/>
    <path class="cls-20" d="M193.51,283.26c.21.9-.51,3.61.43,3.76,1.56.24,8.16-.36,8.55,0-1.94,5.15,1.62,12.82,7.49,12.74.3,1.84-2,2.18-2.27,4.15-.29,2.14,1.31,5.15,1.36,7.45.05,2.47-1.66,6.81-1.35,8.94.16,1.09,1.31,1.79,1.34,2.93.08,2.65-2.68,1.87-2.83,2.01-.26.25.67,1.93.68,2.7,0,3.45-.32,9.31-1.58,12.52-.52,1.32-2.88,1.24-2.76,3.87.1,2.26,2.74,5.07,2.92,6.8.25,2.48-2.6,4.01-2.31,5.87.08.52,2.51.88,2.94,3.26.36,2.01-1,5.92-.7,8.87.19,1.8,1.92.34,1.56,2.18l-3-.36c-.18,1.76,1.58,1.77,1.21,3.78-.41,2.26-3.26,1.94-3.46,2.22-.75,1.02,1.37,3.05,1.51,4.17.18,1.4-.83,2.9-.69,3.64.35,1.85,5.17-.1,4.44,4.52-.39,2.46-4.77,4.66-5.26,7.15-3.8-.21-7.49,1.1-11.24,1.5l-6.36-1.38c-.4,1.23-1.03,1.94-1.88,2.13-1.24.03-2.5.02-3.75,0-.93.35-1.68.35-2.25,0-1.5-.12-3.01-.48-4.49-.75-2.83-.52-2.29-.51-4.49-1.5-2.54-1.66-.82-3.17,1.82-2.71-.89-4.74,2.63-11.22,7.38-6.62l.38-2.58c-1.92-4.42-1.64-7.26.86-8.51-.25-3.58-.45-7.14-.59-10.67-2.23.38-6.58-5.14-6.9-6.81.85-2.8.74-5.42-.34-7.85-5.04-.27-4.08-3.68-1.07-6.02l.77-13.68c-1.44-2.98-2.39-5.06-.16-8-.88-2.68-.76-4.6,1.78-6.25-4.56-3.77,3.64-12.58,5.4-4.77.82-2.99,1.86-5.77,3.13-8.35,2.04.41,1.24-.59-2.39-2.99-2.53,1.97-9.29,1.59-8.54-2.58-4.44.71-4.69-3.81-1.53-5.78.24-.06.71-.62,1.5-.75.84-.15,1.59-.65,2.25-1.5,2.16-1.05,4.44-2.29,6.74-3l.47-.81c4.75-.7,9.34-1.68,13.77-2.94.49-.05,1.01.04,1.5,0Z"/>
    <path class="cls-3" d="M199.5,283.26c1.08-.07,5.05-2.51,4.49.75-.47,0-1.15-.49-1.87-.42-.95.09-2.79,2.89-2.63-.33Z"/>
    <path class="cls-6" d="M243.7,440.62h.75c-.19.25.13,1.67,0,2.25-2-1.27-3.77-1.73-5.24-3.75,1.4.6,3.03,1.03,4.49,1.5Z"/>
    <path class="cls-20" d="M210.73,409.15c.82.82-.67,2.31-1.49,1.49s.67-2.31,1.49-1.49Z"/>
    <path class="cls-6" d="M205.49,409.9l.75-.75c-.24.56-.24.52-.75.75Z"/>
    <path class="cls-28" d="M283.41,379.18c-.43-2.06,5.17-2.87,6.36-3,4.94-.55,5.08,1.23,6.14,1.49s3.75-.21,3.99.01c.22.21-.27,4.13.15,5.48.1.33,2.11,5.33,2.26,5.61.26.46,2.02.68,2.51,1.65.46.91-.45,2.14-.27,3.22.93,5.78.38,11.67-.51,17.79-.26,1.76-1.85,3.98-1.82,5.62.03,1.26,1.26,2.63,1.45,4.45.55,5.18-1.38,12.52-.75,17.2.37,2.71,2.83,3.38,3.01,6.04.22,3.29-1.74,1.37-2.29,1.9-.78.75,2.51,6.89,2.2,8.53-2.05.57-5.31,4.5-6.49,4.84-.58.17-7.97-.46-9.2-.63-3.15-2.4-4.66-5.06-4.53-7.97-4.03-3.99-2.49-8.69-.8-13.36l-1.23-5.78c-4.76-1.44-5.47-7.09-.83-9.1-3.19-3.06-2.69-6.83,1.49-11.32-2.83-2.67-2.05-4.69,2.32-6.06-8.13-5.45-7.23-16.84-1.32-23.69l-1.84-2.91Z"/>
    <path class="cls-6" d="M283.41,379.18c3.42.04,1.76.99,3.32,2.3,1.21,1.02,3.23-.05,2.67,2.2-7.43-2.02-7.83,11.74-6.59,15.96.66,2.26,5.18,3.96,5.17,5.39.6,3.01-3.29,2.84-3.82,3.39-1.26,1.3,1.41,1.52,1.52,1.97.91,3.89-3.95,5.33-3.73,8.93.11,1.75,2.78,2.43,2.17,4.37-.41,1.33-2.99.79-2.95,3.76.05,3.62,3.41,2.78,3.75,3.98.21.72,1.39,6.17,1.39,6.58.01,3.15-2.89,4.16-1.36,9.71.47,1.73,1.76,2.16,2.06,3.18.36,1.23-.19,2.96.3,3.82.38.67,4.02,1.3,2.84,4.64-1.45-.2-3.04-.49-4.49-.75-7.61-1.35-14.59-4.17-21.73-6.74,2.46-4.01,3.06-1.41,5.66-.78,5.27,1.27.91-2.7.51-4.27-1.77-6.98-3.12-17.19-3.92-24.56-.92-8.44,2.6-14.29,2.22-19.45-.2-2.75-1.14-7.8-1.52-11.22-.28-2.48-2.19-5-1.45-7.92,6.09-.72,12.78-4.55,17.98-4.5Z"/>
    <path class="cls-11" d="M93.87,392.66c-.09-.1-1,.24-1.36-.14-.49-.52.03-1.74-.14-2.11,1.07.33,1.49,1.15,1.5,2.25Z"/>
    <path class="cls-27" d="M349.97,363.33c-.83.5-3.18-.41-4.07.81-.59.81,1.33,7.56-1.05,5.29-.98-.94-1.72-18.1-1.55-20.64.18-2.78,1.32-7.35,1.77-9.59.5-2.48,2.56-4.8,5.34-4.15,1.69.4.89,3.65,1.56,5.15.5,1.11,2.48,1.57,2.58,3.34.11,1.94-2.03,3.77-2.21,5.35-.5,4.27-.07,3.61-1.32,8.35-.34,1.28-.1,5.52-1.04,6.09Z"/>
    <path class="cls-26" d="M41.43,194.83c-.46,1.5-1.86,6.57-2.35,7.41-.16.27-.98.1-1.39.09-.3-3.7-.41-5.9,3.75-7.49Z"/>
    <path class="cls-6" d="M153.05,204.58c.82.82-.67,2.31-1.49,1.49s.67-2.31,1.49-1.49Z"/>
    <path class="cls-2" d="M439.86,304.32c1.05.56,2.94,11.71,3.1,13.8.84,11,1.13,31.81-3.43,41.5-2.02,4.29-4.22,5.15-8.88,4.5-2.95-.41-2.42-2.96-5.66-2.18-.3-2.07,2.05-1.82,3.34-3.77,2.55-3.87-.4-5.52-.4-9.34,0-2.5,1.76-4.92,1.57-6.72-.22-2.19-3.52-3.1-3.8-5.28-.21-1.68,1.92-1.16,2.21-2.27.27-1.05-1.61-4.13-1.4-5.93.12-1.03,1.1-1.7,1.29-2.48.62-2.57,1.83-7.5,2.79-9.94.55-1.39,4.6-10.65,5.07-11.04.24-.2,4.02-.95,4.21-.85Z"/>
    <path class="cls-19" d="M273.67,508.07c1.62.22,2.61-.78,2.25,1.5-.48-.07-1.14.12-1.5,0-.83-.28-.82-.72-.75-1.5Z"/>
    <path class="cls-13" d="M544.11,358.94c-.09.49-.53,1.69-.75,2.25-.84.47-1.34,1.21-1.5,2.25-5.28,8.38-12.62,22.03-18.73,29.23-3.28,3.87-6.56,8.49-10.25,12.24-.98.99.55,1.54-2.49,2.75-.66-.41-.41-1.4.75-3,4.96-6.12,10.67-13.92,15.15-20.44,6.32-9.2,11.5-19.08,17.81-28.27-.2.84.17,2.11,0,3Z"/>
    <path class="cls-17" d="M493.92,426.39c-1.24.29-2.45.74-3.75.75,1.49-1.61,3.19-3.07,4.49-4.5-.1,1.27-.35,2.54-.75,3.75Z"/>
    <path class="cls-17" d="M505.16,414.4c-.26.19-1.67-.13-2.25,0,.69-.75,1.87-2.47,3-3.75-.03.68-.58,3.62-.75,3.75Z"/>
    <path class="cls-17" d="M510.4,407.65c-.94.37-1.8-.89-1.5,1.5h-1.5c1.23-1.43,2.56-3.03,3.75-4.5l-.75,3Z"/>
    <path class="cls-11" d="M167.29,292.25l-.75,4.49c5.77-1.08,3.01,2.25,3.75,2.99.17.17,4.41.59,4.74.53.83-.13,1.68-1.52,3.06-1.33.3.04,1.74,3.76,4.93,2.31,1.23,4-2.33,2.97-2.89,3.86s-1.14,10.53-4.65,7.79c-.69-.54-.53-4.06-2.19-2.65-.16.13-2.16,3.21-2.23,3.4-1.08,2.69,6.23,1.88,6.72,2.17,3.76,2.25-.69,10.82-2.24,7.43-.44-.95-.42-6.15-1.88-6.25-.39-.03-3.09,1.91-3.27,2.74-.23,1.05.68,2.25.51,3.45-.14,1.01-1.31,2-1.38,3.23-.09,1.49,1.34,2.6,1.57,4.4.11.88-.66,14.21-.88,14.93-.31,1.02-2.01,1.08-2.19,1.59-1.02,3.01,2.17,1.33,2.92,1.96.17.14,1.41,3.91,1.46,4.24.32,2.01-1.13,3.89-.53,5.69.3.91,1.6,1.02,2.21,1.77.45.55.33,1.98.84,2.32,1.24.83,3.46-.89,4.03,3.1.19,1.32-.48,2.37-.4,3.4.15,2.15,1.61,5.24.34,7.16-.37.55-1.82.52-1.88,1.16-.2,1.97,2.06,5.72,1.21,8.57-1.49,5-3.89-.34-5.3-.02-1.83,1.83-4.18,6.4-1.13,7.9,2.25,1.11,5.78-2.26,5.98,1.84-2.92.39-5.56-.53-8.36-1.01-1.41-.24-2.43-1.41-2.13,1.01-33.36-14.89-40.9-61.69-18.73-89.55,3.47-4.36,13.55-13.38,18.73-14.61Z"/>
    <path class="cls-3" d="M192.01,283.26c-.63,1.74-1.94,1.37-3.33,1.55-3.19.41-7.57,1.17-10.91,2.2-.45-2.32,1.14-1.27,2.5-1.59,4-.93,7.64-1.7,11.74-2.16Z"/>
    <path class="cls-11" d="M171.03,290c-.44,3.62-2.06,1.47-2.25,1.5.39-1.35,1.47-1.12,2.25-1.5Z"/>
    <path class="cls-6" d="M199.5,406.9c-.84-.25-1.34-.45-2.25-.75l2.25.75Z"/>
    <path class="cls-27" d="M314.87,500.57c-.37.39-.13,2.65-2.25,2.25-.18-.53-1.21-1.03-.75-2.24h2.99Z"/>
    <path class="cls-28" d="M263.92,373.18c.82.82-.67,2.31-1.49,1.49s.67-2.31,1.49-1.49Z"/>
    <path class="cls-11" d="M190.51,397.91c-2.93.31-5.16.67-8.24.75-.49-6.18,5.14-3.05,8.24-.75Z"/>
    <path class="cls-11" d="M178.52,398.66l-1.8.68-.44-.68c.13.01,1.72,0,2.25,0Z"/>
    <path class="cls-1" d="M78.14,457.11c1.61-2.35-1.36-6.24,1.86-6.74,2.07.43,1.6,7.26-1.86,6.74Z"/>
    <path class="cls-1" d="M78.88,445.87c.22.22.48,2.84-1.11,2.24-2.72-1.04-.19-3.54,1.11-2.24Z"/>
    <path class="cls-1" d="M76.64,390.42c-.49-.41-3.95-.73-1.5-2.25.34.49,1.77.81,1.5,2.25Z"/>
    <path class="cls-5" d="M610.04,181.34c2.12-.44,1.41,1.04,1.72,2.36,1.35,5.68,1.77,11.42,2.78,17.12-1.93-.15-2.33,1.33-2.25,3-2.34.25-1.6-3.14-4.49-2.25.87-5.83,3.03-14.67,2.25-20.23Z"/>
    <path class="cls-5" d="M607.04,172.35c.63,1.64.99,2.85,1.5,4.5-2.91,1.28-4.25-5.42-1.5-4.5Z"/>
    <path class="cls-5" d="M543.36,361.19c-.72,1.85-1.05,1.54-1.5,2.25-.03-1.77-.5-2.6,1.5-2.25Z"/>
    <rect class="cls-11" x="181.52" y="364.19" width="1.49" height="2.24"/>
    <path class="cls-4" d="M348.58,337.22c.72,1.5-1.34,3.87-2.24,2.99-.4-.39.82-4.1,2.24-2.99Z"/>
    <path class="cls-15" d="M434.73,339.46c1.47,1.36-3.1,3.01-4.49,2.24.11-1.38,3.9-2.79,4.49-2.24Z"/>
  </g>
</svg>